<?xml version="1.0" encoding="utf-8"?>
<!-- Generator: Adobe Illustrator 19.1.0, SVG Export Plug-In . SVG Version: 6.00 Build 0)  -->
<svg version="1.1" id="Layer_1" xmlns="http://www.w3.org/2000/svg" xmlns:xlink="http://www.w3.org/1999/xlink" x="0px" y="0px"
	 viewBox="0 0 4464 540" style="enable-background:new 0 0 4464 540;" xml:space="preserve">
<style type="text/css">
	.st0{fill:#FFFFFF;}
</style>
<g>
	<g>
		<path d="M652.9,461.7c-2.2-0.6-4.6-1-7-1.1c-2.4-0.1-4.8-0.2-7.3-0.2c-2.5,0-5,0.1-7.5,0.2c-2.5,0.2-5,0.2-7.5,0.2
			c-2.5,0-4.9-0.1-7.2-0.3c-2.3-0.2-4.5-0.7-6.6-1.5c-2.1-0.7-4-1.8-5.8-3.3c-1.8-1.4-3.4-3.3-4.9-5.5c-0.2-1.6-0.2-3.4,0-5.3
			c0.1-1.9,0.5-3.7,1.1-5.5c0.6-1.8,1.3-3.5,2.2-5.2c0.9-1.6,1.9-3.1,3.1-4.3c2.7-0.4,5.4-0.9,8.1-1.2c2.7-0.4,5.4-0.7,8.2-1.1
			c2.8-0.4,5.5-0.9,8.2-1.5c2.7-0.6,5.3-1.3,7.9-2.2c0.6-1,1.2-2,1.8-2.9c0.6-0.9,1-1.8,1.3-2.7c0.3-0.9,0.4-1.8,0.3-2.7
			c-0.1-0.9-0.5-1.9-1.2-2.9c-0.2-5.8-0.3-11.6-0.3-17.3c-0.1-5.7,0-11.7,0.1-18.2c0.1-5.5,0.3-11.1,0.4-16.7
			c0.1-5.6,0.2-11.3,0.2-16.9c0-5.7-0.3-11.4-0.8-17.1c-0.5-5.7-1.3-11.4-2.4-17.1c-1.6-1.2-3.5-1.9-5.5-2.1c-2-0.2-4.1-0.3-6.3-0.1
			c-2.2,0.2-4.4,0.4-6.6,0.8c-2.2,0.4-4.3,0.6-6.3,0.6c-0.2,0.8-0.3,1.3-0.4,1.8c-0.2,0.4-0.3,0.9-0.6,1.2c-0.2,0.4-0.4,0.8-0.6,1.3
			c-0.2,0.5-0.2,1.2-0.2,1.9c-1,2.5-1.7,5.2-2,8c-0.3,2.8-0.6,5.5-0.9,8.3c-0.3,2.8-0.7,5.6-1.1,8.4c-0.4,2.8-1.3,5.6-2.5,8.3
			c-1.5,1.9-3.6,3.6-6.2,4.9c-2.6,1.3-5.7,1.9-9.3,1.8c-1.6-0.1-3.1-0.6-4.4-1.5c-1.3-0.8-2.4-1.8-3.5-2.9c-1-1.1-2-2.4-2.8-3.7
			c-0.8-1.3-1.5-2.8-2.1-4.3c-0.2-2.5-0.3-5.2-0.6-7.9c-0.2-2.7-0.5-5.4-0.8-8.2c-0.3-2.8-0.6-5.6-0.8-8.5c-0.2-2.9-0.4-5.8-0.6-8.8
			c-0.2-2.9-0.2-5.8-0.2-8.8c0-2.9,0.2-5.8,0.6-8.8c0.4-2.9,0.9-5.8,1.5-8.8c0.6-2.9,1.4-5.7,2.5-8.4c0.7-1.2,1.8-1.9,3.1-2.1
			c1.3-0.2,2.8-0.3,4.4-0.3c1.6,0,3.3,0,5,0s3.4-0.2,4.7-0.7c1.2,0.3,2.5,0.4,3.9,0.2c1.4-0.1,2.8-0.3,4.3-0.3c1.4-0.1,2.8,0,4,0.2
			c1.3,0.2,2.2,0.9,2.8,2.1c0.4,0,0.8-0.1,1-0.3c0.2-0.2,0.4-0.5,0.7-0.8c0.2-0.3,0.4-0.6,0.7-1c0.2-0.4,0.5-0.7,0.8-1
			c3.7,0.2,7.6,0.2,11.4,0c3.9-0.1,7.8-0.2,11.7-0.2c3.9,0,7.7,0.2,11.3,0.7c3.7,0.4,7.1,1.3,10.2,2.7c0.3-0.3,0.5-0.6,0.7-1
			c0.1-0.4,0.3-0.7,0.3-1.1c0.1-0.4,0.2-0.7,0.3-1.1c0.1-0.4,0.4-0.6,0.7-0.6c2.4,0.4,4.7,0.7,7.1,0.8c2.3,0.1,4.7,0.3,7.3,0.6
			c5.5,0.2,11,0.1,16.5-0.1c5.5-0.2,10.8-0.3,16.2-0.3c5.3,0,10.6,0.3,15.9,0.9c5.3,0.6,10.6,1.9,15.8,3.8c0.4,2.1,0.6,4.3,0.4,6.5
			c-0.2,2.2-0.2,4.7-0.2,7.4c-0.2,5.2-0.2,10.5,0,15.8c0.1,5.3,0.1,10.6-0.1,15.9c-0.2,5.3-0.8,10.5-1.7,15.7s-2.5,10.3-4.9,15.4
			c-1.2,0.9-2.5,1.5-3.9,1.9c-1.4,0.4-3,0.6-4.6,0.7c-1.6,0.1-3.4,0.2-5.2,0.2c-1.8,0.1-3.4,0.3-4.9,0.6c-0.2-0.3-0.4-0.5-0.8-0.7
			c-0.4-0.1-0.8-0.3-1.1-0.3c-0.4-0.1-0.8-0.2-1.1-0.3c-0.4-0.1-0.6-0.4-0.8-0.9c-1.5-2.7-2.6-5.7-3.4-9.1
			c-0.8-3.4-1.3-6.9-1.7-10.5c-0.4-3.7-0.7-7.4-1-11.2c-0.3-3.8-0.8-7.5-1.3-11.1c-1.5-1.3-3.4-2.4-5.7-3c-2.3-0.7-4.8-1-7.3-1
			c-2.5,0-5.1,0.2-7.7,0.7c-2.6,0.4-4.9,1-6.8,1.8c-0.2,4.2-0.3,8.3-0.4,12.2c-0.2,4-0.2,7.9-0.2,11.8c0,3.9,0,7.8-0.1,11.8
			c-0.1,4-0.2,8-0.3,12.2c0.3,5.2,0.3,10.6,0,16c-0.3,5.5-0.4,10.9-0.3,16.3c0.1,5.4,0.4,10.8,1.1,16.2c0.7,5.4,2,10.6,3.9,15.7
			c3.7,1,7.8,1.8,12.1,2.2c4.3,0.4,8.7,0.8,13,0.9c0.6,0.4,1.2,0.9,1.9,1.3c0.7,0.4,1.3,0.9,2,1.2c0.7,0.4,1.3,0.8,1.9,1.3
			c0.6,0.5,1.1,1.2,1.6,1.9c1.2,1.3,2,2.9,2.4,4.6c0.4,1.7,0.6,3.5,0.6,5.4c0,1.9-0.2,3.7-0.7,5.6c-0.4,1.9-1,3.7-1.8,5.5
			c-1.8,1.8-3.7,3.3-5.8,4.5c-2.1,1.2-4.3,2.1-6.6,2.8c-2.3,0.7-4.8,1.2-7.3,1.5c-2.5,0.3-5.1,0.5-7.7,0.6c-2.6,0.1-5.3,0.1-8,0.1
			s-5.3,0-8-0.1c-2.6-0.1-5.2-0.1-7.7,0C657.5,461.2,655.1,461.4,652.9,461.7z"/>
		<path d="M831.1,459.6c-1.9-0.6-4-1-6.1-1.3c-2.1-0.3-4.2-0.5-6.3-0.6c-2.1-0.1-4.2-0.1-6.3-0.1c-2.1,0-4.2,0-6.2-0.1
			c-2-0.1-4-0.2-5.9-0.3c-1.9-0.1-3.9-0.4-5.7-0.9c-1.9-0.4-3.6-1.1-5.3-2c-1.6-0.9-3.3-2-4.9-3.4c-0.3-0.9-0.6-1.9-0.8-2.9
			c-0.2-1-0.4-2.2-0.6-3.4c-0.2-1.2-0.3-2.4-0.3-3.6c-0.1-1.2-0.2-2.5-0.3-3.8c0.4-2.1,1.4-3.9,2.8-5.4c1.4-1.5,3-2.8,4.8-4
			c1.8-1.2,3.7-2.3,5.7-3.3c2-1,3.8-2,5.5-3l0.4-67.8c-0.3-3.4-0.4-6.8-0.3-10.2c0.1-3.4,0.2-6.8,0.4-10.2c0.2-3.4,0.4-6.9,0.6-10.4
			c0.1-3.5,0.1-7.1-0.2-10.7c0.3-2.1,0.1-3.8-0.6-5.2c-0.7-1.3-1.6-2.5-2.9-3.5c-1.3-1-2.7-1.8-4.4-2.6c-1.6-0.7-3.2-1.6-4.7-2.5
			c-1.9-1-3.6-2.4-4.8-4c-1.3-1.6-2.2-3.5-2.7-5.6c-0.5-2.1-0.7-4.3-0.6-6.5c0.1-2.2,0.7-4.5,1.6-6.7c0.6-0.3,1.1-0.7,1.6-1.1
			s0.9-0.9,1.5-1.3c0.5-0.4,1-0.9,1.6-1.3c0.5-0.4,1.2-0.7,1.9-0.9c5.2-1.2,10.6-1.9,16.2-2.2c5.5-0.3,11.1-0.3,16.6,0
			c5.5,0.3,11,0.9,16.3,1.8c5.3,0.9,10.4,1.9,15.1,2.9c0.9,1.3,1.8,2.9,2.8,4.6c1,1.7,1.7,3.6,2.2,5.6c0.5,2,0.8,4.1,0.8,6.2
			c0,2.1-0.5,4.1-1.6,6.1c-0.9,1.6-2.1,2.8-3.6,3.6c-1.5,0.8-3.1,1.3-4.9,1.6c-1.8,0.3-3.7,0.6-5.7,0.8c-2,0.2-4,0.6-5.9,1
			c-0.9,2.8-1.6,5.9-2.1,9.3c-0.5,3.4-0.8,6.8-0.9,10.3c-0.1,3.5,0.1,7,0.6,10.5c0.4,3.5,1.1,6.9,2,10.2c4.8,1.2,9.7,2.2,14.8,3
			c5.1,0.8,10.2,1.4,15.3,1.7c5.1,0.3,10.2,0.3,15.4-0.1c5.2-0.4,10.3-1.2,15.4-2.4c0.9-1.2,1.6-2.5,2-3.8c0.4-1.3,0.8-2.8,1-4.3
			c0.2-1.5,0.3-3,0.3-4.5c0-1.5-0.1-3.1-0.2-4.7c-0.2-1.6-0.3-3.3-0.6-4.9c-0.2-1.6-0.4-3.3-0.6-4.9c-0.2-1.6-0.3-3.3-0.4-4.9
			c-0.2-1.6-0.2-3.3,0-4.9c-1-1.8-2.4-3.3-3.9-4.4c-1.6-1.1-3.3-2.1-5.2-3c-1.9-0.9-3.9-1.7-6.1-2.5c-2.2-0.7-4.3-1.6-6.4-2.5
			c-0.9-1-1.7-2.1-2.4-3c-0.7-1-1.2-2-1.5-3.1c-0.3-1.1-0.5-2.4-0.6-3.7c-0.1-1.3,0-2.8,0.3-4.5c0-0.7,0.1-1.6,0.2-2.6
			c0.1-1,0.4-1.9,0.9-2.7c0.4-0.8,1-1.6,1.8-2.2c0.7-0.7,1.6-1.2,2.5-1.5c5.4-1.3,10.9-2.2,16.6-2.7c5.7-0.4,11.4-0.6,17.3-0.3
			c5.8,0.2,11.6,0.8,17.4,1.6c5.8,0.8,11.4,1.9,16.9,3.3c1.2,1,2.1,2.2,2.8,3.5c0.7,1.3,1.2,2.7,1.6,4.3c0.4,1.6,0.6,3.3,0.7,5
			c0.1,1.8,0,3.6-0.1,5.4c-0.3,1.6-1,3-2.2,4c-1.2,1-2.6,1.9-4.2,2.7c-1.6,0.8-3.2,1.5-4.9,2.1c-1.7,0.7-3.3,1.5-4.8,2.6
			c-0.8,3.7-1.3,7.7-1.6,12c-0.3,4.3-0.5,8.6-0.7,13c-0.2,4.4-0.3,8.9-0.3,13.5c-0.1,4.6-0.3,9.1-0.8,13.6
			c-0.2,5.4-0.2,10.8-0.1,16.4c0.1,5.5,0.2,11.1,0.4,16.7c0.2,5.6,0.6,11.1,1,16.6c0.4,5.5,1,10.9,1.6,16.3c0.3,0.2,0.7,0.3,1.1,0.3
			c0.4,0.1,0.9,0.2,1.3,0.3c0.4,0.2,0.9,0.3,1.5,0.6c0.5,0.2,1.1,0.6,1.7,1.2c1.6,1.5,3.2,3.2,4.6,5.2c1.4,1.9,2.6,4.1,3.5,6.4
			c0.9,2.3,1.5,4.8,1.7,7.3c0.2,2.5,0,5.2-0.8,7.9c-0.6,1-1.4,2-2.4,2.8c-1,0.8-2.1,1.5-3.5,2.1c-1.3,0.6-2.8,1-4.4,1.3
			c-1.6,0.3-3.2,0.4-4.8,0.4c-2.4-0.3-4.9-0.5-7.4-0.6c-2.5-0.1-5.1-0.1-7.7-0.1c-2.6,0-5.3,0-8,0.1c-2.7,0.1-5.3,0.1-8,0
			c-2.6-0.1-5.2-0.3-7.7-0.7c-2.5-0.4-5-0.9-7.4-1.7c-2.4-0.7-4.7-1.8-6.8-3c-2.2-1.3-4.2-2.9-6.2-4.8c-0.4-1.2-0.8-2.6-1-4.2
			c-0.2-1.6-0.3-3.2-0.2-4.8c0.1-1.6,0.4-3.2,0.9-4.7c0.5-1.5,1.2-2.8,2.1-4c2.8-1.6,5.8-3,9-4c3.1-1,6.7-1.7,10.5-2
			c0.9-2.7,1.6-5.6,2.1-8.8c0.5-3.1,0.8-6.4,0.9-9.8c0.1-3.4-0.1-6.8-0.4-10.2c-0.4-3.4-1-6.7-1.9-9.9c-4.8-1.6-9.8-2.9-14.9-3.7
			c-5.2-0.8-10.4-1.3-15.7-1.6c-5.3-0.2-10.6-0.1-15.9,0.2c-5.3,0.4-10.4,1-15.4,1.9c-0.6,3.4-1.2,6.8-1.7,10
			c-0.5,3.2-0.9,6.4-1,9.6c-0.2,3.2-0.1,6.5,0.2,9.8c0.3,3.3,0.9,6.7,1.8,10.1c0.9,1.3,2.1,2.4,3.7,3c1.6,0.7,3.3,1.3,5,1.8
			c1.8,0.5,3.6,1.1,5.3,1.7c1.7,0.6,3.3,1.5,4.6,2.7c1,0.9,2,2,2.8,3.4c0.8,1.3,1.5,2.8,1.9,4.5c0.4,1.6,0.7,3.4,0.8,5.2
			c0.1,1.8-0.1,3.6-0.6,5.4c-1.6,1.8-3.5,3.4-5.6,4.7c-2.1,1.3-4.4,2.5-6.8,3.4c-2.5,0.9-5,1.6-7.7,2
			C836.5,459.4,833.8,459.6,831.1,459.6z"/>
		<path d="M1009.3,462.8c-1.8-0.9-3.6-1.8-5.3-2.8c-1.7-1-3.7-2-5.9-3c-0.8-1.2-1.4-2.5-1.9-3.9c-0.5-1.4-0.9-2.9-1-4.5
			c-0.2-1.6-0.1-3.2,0.1-4.8c0.2-1.6,0.6-3.1,1.2-4.5c0.9-2.1,2.1-3.6,3.7-4.6c1.6-1,3.4-1.7,5.4-2.2c2-0.5,4.1-1,6.3-1.3
			c2.2-0.4,4.3-1,6.4-1.9c1-2.1,1.8-4.3,2.4-6.7c0.5-2.4,0.9-4.9,1.1-7.5c0.2-2.6,0.3-5.3,0.3-8c0-2.7,0-5.4-0.1-8.2
			c-0.1-2.8-0.2-5.5-0.4-8.3c-0.2-2.8-0.4-5.6-0.4-8.4c-0.1-2.8-0.1-5.6-0.1-8.4c0-2.8,0.1-5.4,0.4-8c-0.2-5.5-0.1-11.1,0.2-16.7
			c0.3-5.6,0.4-11.2,0.3-16.7c-0.1-5.5-0.4-10.9-1-16.2c-0.6-5.2-1.9-10.2-3.8-15c-1.8-0.1-3.6-0.3-5.4-0.6s-3.5-0.6-5.2-1
			c-1.6-0.4-3.3-1.1-4.8-1.9c-1.6-0.8-3-1.8-4.4-3c-0.9-1-1.6-2.2-2-3.6c-0.4-1.3-0.7-2.8-0.7-4.4c0-1.6,0.2-3.1,0.6-4.7
			c0.4-1.6,0.9-3,1.7-4.4c0.6-1,1.4-1.9,2.4-2.7c1-0.7,2-1.4,3-1.9c1-0.5,2.2-0.9,3.5-1.1c1.3-0.2,2.6-0.4,3.9-0.4
			c1.3-0.1,2.7-0.1,4-0.2c1.3-0.1,2.7-0.1,4.2-0.1c1.4,0,2.8,0,4.2-0.1c1.3-0.1,2.7-0.3,4-0.6c6-0.3,11.9-0.6,17.6-0.9
			c5.8-0.3,11.4-0.5,17.1-0.7c5.6-0.1,11.2-0.2,16.8-0.2c5.6,0,11.4,0.1,17.4,0.2c11.1,0.2,22.1,0.5,33.1,1c11,0.5,21.9,1,32.6,1.5
			c-0.3,0.3-0.3,0.6,0,0.9c0,2.7,0.1,5.4,0.2,8.1c0.1,2.7,0.3,5.4,0.4,8.1c0.1,2.7,0.3,5.4,0.4,8.2c0.1,2.8,0.2,5.5,0.1,8.3
			c-0.1,2.8-0.2,5.5-0.3,8.3c-0.2,2.8-0.5,5.5-1,8.2c-0.5,2.7-1.2,5.4-2,8.1c-0.8,2.7-1.8,5.2-3,7.6c-1.3,1.2-2.9,2.1-4.6,2.6
			c-1.7,0.5-3.6,0.8-5.5,0.7c-1.9-0.1-3.9-0.4-5.8-1.1c-1.9-0.7-3.7-1.5-5.2-2.6c-1-1.2-1.9-2.4-2.5-3.7c-0.6-1.3-1.1-2.6-1.5-3.9
			c-0.4-1.3-0.6-2.7-0.7-4.2c-0.1-1.4-0.1-2.9-0.1-4.4c0-1.5,0-3,0.1-4.5c0.1-1.5,0.1-3,0-4.4c-0.1-1.4-0.2-2.9-0.4-4.4
			c-0.2-1.5-0.6-2.9-1-4.3c-0.6,0-1.1,0-1.6,0s-0.9,0-1.5,0c-0.5,0-1,0-1.5-0.1c-0.4-0.1-1-0.1-1.6-0.1c-5.5-0.3-11.1-0.7-16.8-1.2
			c-5.7-0.5-11.3-0.9-16.9-1c-5.6-0.1-11.2,0.1-16.8,0.8c-5.6,0.7-11.1,2.1-16.5,4.2c-0.4,3.3-0.9,6.8-1.2,10.5
			c-0.4,3.7-0.6,7.6-0.6,11.4c0,3.9,0.2,7.8,0.6,11.7c0.4,3.9,1.1,7.6,2.1,11.2c3.4,0,6.9,0,10.4,0c3.5,0,7.1,0,10.9,0
			c1-0.6,1.9-1.3,2.6-2.1c0.7-0.8,1.3-1.7,1.9-2.6c0.6-0.9,1.1-1.9,1.6-2.9c0.4-1,0.9-2.1,1.3-3.1c0.4-1,0.9-2.1,1.5-3
			c0.5-1,1.1-1.9,1.8-2.7c0.7-0.8,1.4-1.5,2.2-2.1c0.8-0.6,1.8-1,3-1.3c1.8-0.3,3.5-0.4,5.2-0.4c1.6,0,3.2,0.2,4.6,0.6
			c1.4,0.4,2.7,1,3.9,1.9c1.2,0.9,2.2,2.1,3.1,3.6c0.9,4.8,1.7,9.8,2.5,15.1c0.7,5.3,1.2,10.7,1.2,16.2c0.1,5.5-0.3,10.9-1.2,16.4
			c-0.9,5.5-2.5,10.8-4.7,16c-0.6,0.9-1.4,1.6-2.5,2.1c-1,0.5-2.2,0.9-3.4,1.1c-1.2,0.2-2.4,0.3-3.7,0.3c-1.3,0-2.6-0.1-3.9-0.2
			c-2.7-0.4-4.8-1.4-6.3-2.9c-1.5-1.5-2.8-3.2-3.8-5.2c-1-1.9-1.9-4-2.7-6.1c-0.8-2.1-1.7-4-2.9-5.8c-1.8,0.2-3.7,0.1-5.6-0.1
			c-1.9-0.2-3.9-0.3-5.8-0.3c-1.9,0-3.9,0.2-5.7,0.4c-1.9,0.3-3.7,0.9-5.5,1.8c-1.3,3.1-2.2,6.5-2.7,10c-0.4,3.5-0.6,7.1-0.4,10.9
			c0.1,3.7,0.4,7.5,0.9,11.3c0.4,3.8,0.9,7.5,1.3,11.1c0.1,0.4,0.6,0.8,1.2,1.1c0.7,0.3,1.5,0.5,2.4,0.6c0.9,0.1,1.9,0.1,2.9,0.1
			c1,0,1.9,0.1,2.7,0.2c6,0.6,11.8,1,17.5,1.2c5.7,0.2,11.3,0.3,16.9,0.2c5.6-0.1,11.3-0.3,16.9-0.7c5.7-0.4,11.4-0.9,17.3-1.7
			c1.5-1.6,2.5-3.4,2.9-5.3c0.4-1.9,0.7-3.8,0.8-5.8c0.1-2,0.1-4,0.1-6.1s0.1-4,0.4-5.9c0.6-1.9,1.2-3.7,1.9-5.2
			c0.7-1.5,1.5-2.8,2.4-4c0.9-1.2,2-2.2,3.3-3c1.3-0.8,2.7-1.5,4.4-2.1c2.8-0.1,5.5,0.2,7.9,1.1c2.4,0.9,4.4,2.2,6.1,4
			c2.2,4.9,3.7,10.1,4.4,15.4c0.7,5.3,1,10.7,1,16.2c0,5.5-0.2,11-0.7,16.5c-0.4,5.5-0.7,10.8-0.7,15.9L1009.3,462.8z"/>
		<path d="M1404.6,458.7c-4-0.7-8.1-1.1-12.2-1c-4.1,0.1-8.2,0.2-12.3,0.3c-4.1,0.2-8.2,0.1-12.2-0.2c-4-0.3-8-1.1-11.9-2.5
			c-1.3-1.2-2.4-2.6-3.1-4.3c-0.8-1.6-1.3-3.4-1.7-5.3c-0.4-1.9-0.6-3.8-0.6-5.9c0-2.1,0.1-4.1,0.4-6.1c1.8-2.4,4.2-4.3,7.1-5.7
			c2.9-1.4,6.2-2.6,10-3.5c0.4,0,0.9-0.2,1.3-0.7c0.4-0.4,0.8-1,1.1-1.7c0.3-0.7,0.6-1.3,0.9-2c0.3-0.7,0.6-1.3,0.9-1.9
			c0.7-3.4,1.3-6.8,1.7-10c0.4-3.2,0.7-6.4,0.9-9.4c0.2-3.1,0.3-6.2,0.2-9.3c-0.1-3.1-0.3-6.4-0.6-9.9c0.7-1.9,1.1-3.8,1-5.7
			c-0.1-1.9-0.3-3.8-0.6-5.7c-0.3-1.9-0.6-4-0.8-6.1c-0.2-2.1-0.1-4.2,0.3-6.3c0-6.6,0-13.1-0.1-19.5c-0.1-6.4-0.2-13.1-0.3-20
			c-0.8-1.2-1.6-2.4-2.7-3.5c-1-1.1-2.1-2.2-3.3-3.3c-1.1-1-2.3-2-3.5-2.9c-1.2-0.9-2.4-1.8-3.6-2.8c-1.2-1-2.4-2-3.6-3
			c-1.2-1-2.3-2.1-3.3-3.3c-1-1.1-1.9-2.3-2.8-3.6c-0.9-1.3-1.6-2.7-2-4.4c0-1.3,0-2.7,0-4c0-1.3,0.1-2.7,0.3-3.9
			c0.2-1.3,0.6-2.5,1.1-3.6c0.5-1.1,1.2-2.1,2.1-3c0.9,0.3,1.6,0.3,2.2,0.1c0.6-0.2,1.1-0.6,1.6-1c0.4-0.4,0.9-1,1.3-1.6
			c0.4-0.6,0.9-1.1,1.3-1.6c4.2-0.4,8.5-1,12.9-1.7c4.4-0.7,8.8-1.2,13.1-1.5c4.3-0.3,8.6-0.3,12.8,0.1c4.2,0.4,8.2,1.3,11.9,2.8
			c0.4-0.1,0.8-0.3,1.1-0.4c1-0.7,2.2-1.1,3.5-1c1.3,0.1,2.6,0.3,3.9,0.7c1.3,0.4,2.8,0.8,4.3,1.1c1.5,0.4,2.9,0.5,4.3,0.3
			c1.6,1,3.2,2.2,4.6,3.6c1.4,1.3,2.6,2.9,3.6,4.7c1,1.8,1.6,3.7,2,5.8c0.4,2.1,0.5,4.5,0.3,7.2c-0.3,1.5-0.8,2.8-1.5,3.9
			c-0.7,1.1-1.5,2.1-2.5,2.8c-1,0.8-2.1,1.4-3.4,2c-1.3,0.6-2.6,1.1-4,1.5c-1.4,0.4-2.8,0.8-4.3,1.1c-1.4,0.4-2.9,0.7-4.4,1
			c-1.5,0.3-2.9,0.6-4.3,1c-1.3,0.4-2.6,0.8-3.8,1.2c-0.3,1.3-0.5,2.8-0.6,4.3c-0.1,1.5-0.1,3-0.1,4.4c0,1.4-0.1,2.8-0.2,4.3
			c-0.2,1.4-0.4,2.8-0.9,4.2c0.4,0.8,0.9,1.7,1.2,2.9c0.4,1.2,0.7,2.5,1,3.8c0.3,1.3,0.6,2.8,0.8,4.3c0.2,1.5,0.3,2.9,0.3,4.3
			c1.3,0.2,2.5,0,3.5-0.4c1-0.4,1.9-1,2.7-1.8c0.8-0.7,1.6-1.6,2.5-2.5c0.8-0.9,1.7-1.7,2.6-2.5c3-2.7,6.2-5.2,9.5-7.5
			c3.4-2.3,6.7-4.7,10-7.1c3.3-2.4,6.4-5,9.2-7.9c2.8-2.8,5.2-6.1,7-9.9c-0.6-0.6-1.1-1.2-1.5-1.7c-0.4-0.5-0.7-1.1-1-1.8
			c-0.3-0.7-0.6-1.3-0.9-2c-0.3-0.7-0.6-1.5-0.9-2.6c0-1.8,0-3.6-0.1-5.5c-0.1-1.9,0-3.8,0.1-5.7c0.1-1.9,0.5-3.8,1-5.5
			c0.5-1.7,1.5-3.3,3-4.6c3.1-0.4,6.4-0.7,9.6-0.8c3.3-0.1,6.6-0.1,9.9,0c3.3,0.1,6.6,0.1,10,0.1c3.4,0,6.6-0.2,9.8-0.7
			c2.7,0.3,5.3,0.4,8,0.4c2.6,0,5.3,0.1,8,0.3c2.7,0.2,5.3,0.7,8,1.5c2.6,0.8,5.1,2,7.5,3.8c1.5,0.9,2.7,2,3.5,3.4
			c0.8,1.3,1.3,2.8,1.6,4.3c0.2,1.5,0.2,3.1,0,4.8c-0.2,1.7-0.6,3.6-1.2,5.5c-1,1.6-2.3,3.1-3.7,4.4c-1.4,1.3-3,2.3-4.8,3.1
			c-1.8,0.8-3.7,1.6-5.6,2.2c-1.9,0.7-3.9,1.3-5.8,1.9c-1.9,0.6-3.9,1.2-5.9,1.9c-2,0.7-3.9,1.5-5.7,2.5c-1.8,1-3.4,2.1-4.9,3.5
			c-1.5,1.3-2.8,3-3.8,4.9c-2.4,3.3-5.1,6.3-8.1,9.1c-3,2.8-6.1,5.4-9.2,8c-3.1,2.5-6.2,5.1-9.2,7.7c-3,2.6-5.7,5.6-8.1,8.9
			c0.3,0.2,0.6,0.4,1,0.7c0.4,0.3,0.8,0.7,1.2,1.1c1.5,0.6,2.9,1.3,4.3,2.2c1.3,0.9,2.6,1.9,3.8,2.9c1.2,1,2.3,2.2,3.4,3.4
			c1,1.2,2.1,2.4,3,3.7c1,1.3,1.9,2.5,2.9,3.8c1,1.3,2,2.5,3,3.8c1,1.3,2.1,2.5,3.3,3.6c1.1,1.1,2.4,2.2,3.7,3.3
			c1.5,0.8,2.8,1.8,3.8,3c1,1.3,2,2.7,2.8,4.2c0.8,1.5,1.5,3.1,2,4.8c0.5,1.7,1,3.5,1.5,5.3c0.9,1.9,1.7,3.7,2.4,5.4
			c0.7,1.6,1.3,3.3,2,5c0.7,1.7,1.3,3.4,1.9,5c0.6,1.6,1.3,3.4,2,5.2c1.2,0.9,2.5,1.7,3.8,2.4c1.3,0.7,2.7,1.2,4.2,1.7
			c1.4,0.4,2.8,0.9,4.3,1.2c1.4,0.4,2.8,0.8,4.3,1.1c1.4,0.4,2.8,0.8,4.2,1.2c1.3,0.4,2.6,1,3.8,1.6c1.2,0.6,2.3,1.3,3.3,2.2
			c1,0.9,1.8,1.9,2.6,3.1c1.2,1.6,1.9,3.5,2.2,5.5c0.3,2,0.3,4.1-0.1,6.2c-0.4,2.1-1,4.2-1.8,6.2c-0.8,2-1.8,3.8-2.8,5.3
			c-1.8,0.9-3.6,1.6-5.5,2c-1.9,0.4-3.8,0.7-5.7,0.8c-1.9,0.1-4,0-6.1-0.1c-2.1-0.1-4.2-0.4-6.3-0.7c-2.1-0.3-4.2-0.6-6.4-0.9
			c-2.2-0.3-4.3-0.6-6.5-0.9c-2.2-0.3-4.3-0.5-6.4-0.7c-2.1-0.1-4.2-0.1-6.3,0c-0.9-0.6-1.6-1.3-2.1-2.2c-0.5-0.9-1-1.8-1.3-2.8
			c-0.4-1-0.8-1.9-1.1-2.8c-0.4-0.9-1-1.7-1.9-2.5c-0.9-2.7-1.9-5.3-2.9-7.7c-1-2.5-2.2-4.9-3.5-7.3c-1.3-2.4-2.6-4.7-4-7
			c-1.4-2.2-2.9-4.6-4.4-7c-1.6-3.6-3.4-7.3-5.4-11.1c-1.9-3.8-4.2-7.4-6.6-10.8c-2.5-3.4-5.3-6.5-8.4-9.4
			c-3.1-2.9-6.7-5.4-10.5-7.5c-1.2-0.4-2.5-0.6-3.8-0.4c-1.3,0.2-2.7,0.5-4,1c-1.3,0.5-2.7,1.2-3.9,1.9c-1.3,0.8-2.4,1.5-3.5,2.2
			c-1.5,1-2.8,2.2-3.8,3.6c-1,1.3-1.9,2.8-2.5,4.4c-0.6,1.6-1,3.2-1.3,4.8c-0.3,1.6-0.4,3.4-0.4,5.3c0,1.9,0.1,3.7,0.3,5.6
			c0.2,1.9,0.5,3.8,0.8,5.7c0.3,1.9,0.6,3.8,1,5.6c0.4,1.8,0.8,3.6,1.2,5.4c1.5,1,3.1,1.6,4.7,1.8c1.6,0.2,3.3,0.2,4.9,0.2
			c1.6,0,3.3,0.1,4.9,0.3c1.6,0.2,3.2,0.9,4.7,1.9c1.8,1,3.2,2.4,4.2,4.2c1,1.7,1.6,3.6,1.9,5.7c0.3,2.1,0.4,4.3,0.2,6.6
			c-0.2,2.3-0.4,4.6-0.7,6.8c-0.3,0.9-0.8,1.6-1.3,2.2c-0.6,0.6-1.3,1.2-2,1.7c-0.8,0.5-1.6,1-2.5,1.3c-0.9,0.4-1.8,0.8-2.7,1.2
			c-1.8,0.6-3.7,1-5.7,1.3c-2,0.3-4,0.5-6.1,0.7c-2,0.2-4,0.2-6.1,0.2C1408.5,458.7,1406.6,458.7,1404.6,458.7z"/>
		<path d="M1739.7,460.8c-1.3-0.7-2.8-1.3-4.3-1.7c-1.5-0.4-3-0.7-4.5-0.9c-1.5-0.2-3-0.3-4.5-0.3c-1.5,0-3,0-4.5-0.1
			c-1.5-0.1-3-0.1-4.5-0.2c-1.5-0.1-3-0.3-4.4-0.7c-1.4-0.4-2.8-0.9-4.2-1.5c-1.3-0.6-2.6-1.5-3.8-2.7c-1-0.7-2-1.6-2.9-2.6
			c-0.9-1-1.6-2.1-2.1-3.3c-0.5-1.2-0.8-2.5-0.9-3.8c-0.1-1.3,0-2.8,0.3-4.5c0.6-3,1.8-5.4,3.5-7.2c1.7-1.8,3.7-3.3,5.9-4.5
			c2.2-1.2,4.6-2.2,7.1-3.1c2.5-0.9,4.8-1.9,7.1-2.9c-0.2,0-0.2-0.1-0.2-0.4c0-0.3,0-0.6,0-1c0-0.4,0-0.7,0-1.1
			c0-0.4-0.1-0.6-0.2-0.8c-0.8-1-1.4-2-2-2.9c-0.6-0.9-1.2-1.7-1.9-2.5c-0.7-0.7-1.5-1.3-2.4-1.8c-0.9-0.4-2-0.7-3.4-0.7
			c-5.7-0.9-11.4-1.6-17.1-2.1c-5.7-0.5-11.4-0.7-17.1-0.7c-5.7,0.1-11.4,0.4-17.2,1.1c-5.8,0.7-11.5,1.8-17.2,3.3
			c-0.4,0.4-0.8,1-1.1,1.7c-0.3,0.7-0.5,1.4-0.6,2.2c-0.1,0.8-0.1,1.7-0.1,2.7c0,1,0.1,1.9,0.2,2.8c0.6,0.6,1.2,1.2,1.9,1.8
			c0.7,0.6,1.5,1.1,2.4,1.6c0.9,0.4,1.8,0.8,2.8,1.1c1,0.3,2,0.6,3.1,0.9c1.1,0.3,2.2,0.6,3.3,1c1,0.4,2.1,0.8,3,1.1
			c1,0.4,1.9,0.8,2.8,1.3c0.9,0.5,1.6,1.2,2.2,1.9c1,1.6,1.6,3.4,1.7,5.3c0.1,1.9-0.2,3.7-0.7,5.6c-0.5,1.9-1.2,3.7-2.1,5.6
			c-0.9,1.9-1.8,3.6-2.7,5.3c-1.6,1.8-3.9,3.1-6.6,3.8c-2.8,0.8-5.7,1-8.9,0.9c-2.5-0.4-5.1-0.7-7.7-0.8c-2.6-0.1-5.3-0.1-8,0
			c-2.7,0.1-5.4,0.2-8.1,0.3c-2.7,0.2-5.3,0.2-8,0.2c-2.6,0-5.2-0.1-7.9-0.4c-2.6-0.3-5.2-0.7-7.7-1.3c-2.5-0.6-5-1.4-7.3-2.5
			c-2.3-1-4.6-2.4-6.8-4c-0.9-1-1.4-2.3-1.5-3.7c-0.1-1.4,0-3,0.3-4.6c0.3-1.6,0.7-3.3,1.2-4.9c0.5-1.6,0.9-3.2,1.2-4.7
			c1.6-1.8,3.5-3.4,5.5-4.7c2-1.3,4.4-2.2,7.1-2.5c0.9,0.2,1.6,0,2.1-0.3c0.5-0.4,1-0.9,1.3-1.5c0.4-0.6,0.7-1.2,1.1-1.9
			c0.4-0.7,0.9-1.3,1.5-1.9c2.2-3.6,4.2-7.5,5.9-11.7c1.7-4.2,3.4-8.3,4.9-12.5c1.6-4.1,3.2-8.2,4.9-12.1c1.7-4,3.8-7.6,6.2-10.9
			c1.5-3.9,3-7.7,4.6-11.6c1.6-3.8,3.2-7.6,4.8-11.4c1.6-3.8,3.2-7.7,4.6-11.7c1.4-4,2.7-8,3.9-12.2c0-1.6,0.2-3.2,0.6-4.7
			c0.4-1.5,0.8-2.9,1.3-4.3c0.5-1.3,1-2.7,1.6-4c0.5-1.3,0.9-2.7,1-4c-1.3-0.7-2.7-1.3-4-1.8c-1.3-0.4-2.7-0.8-4.2-1
			c-1.4-0.2-2.9-0.4-4.4-0.6c-1.5-0.1-3-0.3-4.5-0.3c-1.5-0.1-3-0.2-4.6-0.3c-1.6-0.1-3.1-0.3-4.6-0.6c-1.5-0.2-3-0.6-4.4-1
			c-1.4-0.4-2.8-1-4.2-1.8c-1-1.3-1.7-2.9-1.9-4.6c-0.2-1.7-0.3-3.6-0.2-5.7c0.1-2.1,0.3-4.2,0.6-6.3c0.3-2.1,0.4-4.1,0.2-6.1
			c1.5-1.9,3.3-3.4,5.5-4.4c2.2-1,4.5-1.7,7-2.1c2.5-0.4,5-0.7,7.7-0.8c2.7-0.1,5.4-0.2,8.1-0.3c2.7,0,5.4,0,8.1-0.1
			c2.7-0.1,5.4-0.2,8.2-0.3c2.8-0.1,5.5-0.3,8.3-0.3c2.8-0.1,5.5-0.1,8.2,0c2.7,0.1,5.3,0.3,8,0.7c2.6,0.4,5.2,0.9,7.6,1.6
			c2.5,0.7,4.9,1.6,7.2,2.7c2.3,1.1,4.5,2.4,6.6,3.9c0.9,1.6,1.8,3.3,2.6,4.9c0.8,1.6,1.6,3.3,2.5,4.9c0.8,1.6,1.6,3.3,2.2,5
			c0.7,1.7,1.3,3.6,1.9,5.7c1.2,3.9,2.5,7.7,3.9,11.4c1.4,3.7,2.9,7.5,4.5,11.3c1.6,3.8,3.2,7.7,4.9,11.6c1.7,3.9,3.3,7.9,4.6,11.9
			c1.6,4.2,3.3,8.4,4.9,12.7c1.6,4.3,3.3,8.5,4.9,12.6c1.6,4.1,3.4,8.2,5.2,12.3c1.8,4.1,3.7,8,5.6,11.8c0.9,1.8,1.8,3.6,2.6,5.4
			c0.8,1.8,1.6,3.6,2.5,5.4c0.8,1.8,1.6,3.6,2.4,5.4c0.7,1.8,1.6,3.5,2.6,5.2c1,1.6,2,3.2,3.1,4.6c1.1,1.4,2.4,2.7,3.8,3.9
			c1.4,1.2,3,2.2,4.7,3c1.7,0.8,3.7,1.5,5.9,1.9c1.6,1.2,2.8,2.7,3.5,4.4c0.7,1.7,1,3.6,1,5.6s-0.2,4.1-0.6,6.2
			c-0.4,2.1-0.9,4.2-1.5,6.3c-1,1.3-2.3,2.5-3.7,3.5c-1.4,1-3,1.8-4.6,2.4c-1.6,0.6-3.3,1.1-5,1.6c-1.7,0.4-3.5,0.8-5.4,1
			c-1.9,0.2-3.7,0.4-5.6,0.4c-1.9,0.1-3.7,0.2-5.6,0.2c-1.9,0.1-3.7,0.1-5.5,0.1S1741.3,460.6,1739.7,460.8z M1677.5,372.4l25.8-0.7
			l-20.2-45.3l-20.9,42.9L1677.5,372.4z"/>
		<path d="M1927.8,463.9c-0.4,0-1-0.1-1.6-0.3c-0.6-0.2-1.2-0.4-1.8-0.6c-2.8-0.3-5.7-0.6-8.6-0.9c-2.9-0.3-5.9-0.5-9.1-0.6
			c-3.1-0.1-6.3-0.2-9.4-0.3c-3.1-0.1-6.3-0.4-9.4-0.7c-2.5-0.1-5.2-0.2-7.9-0.1c-2.7,0.1-5.4,0.2-8.2,0.4c-2.8,0.2-5.5,0.4-8.3,0.7
			c-2.8,0.2-5.5,0.4-8.3,0.4c-2.8,0.1-5.5,0-8.1-0.1c-2.6-0.1-5.1-0.5-7.5-1.1c-2.4-0.6-4.7-1.5-7-2.6c-2.2-1.1-4.3-2.5-6.3-4.2
			c0.1-1.3,0.1-2.7,0-4c-0.2-1.3-0.3-2.8-0.3-4.3c-0.1-1.5,0-3,0.1-4.5c0.1-1.5,0.6-2.9,1.3-4.3c0.7-1.6,1.8-3,3.1-3.9
			c1.3-1,2.9-1.8,4.6-2.4c1.7-0.6,3.5-1,5.4-1.2c1.9-0.2,3.7-0.4,5.5-0.6c0.4-1.5,1-3,1.7-4.4c0.7-1.4,1.3-2.9,1.9-4.4
			c0.6-1.5,1-3,1.1-4.4c0.1-1.4-0.2-2.7-0.9-3.9c1-4.6,1.8-9.5,2.4-14.5c0.5-5,0.5-10.1-0.1-15.1c0.4-5.7,0.7-11.4,0.7-17.1
			c0-5.7-0.1-11.4-0.2-17.1c-0.2-5.7-0.3-11.4-0.4-17.3c-0.2-5.8-0.2-11.7,0-17.5c-0.8-2.2-2-4.1-3.7-5.5c-1.7-1.4-3.7-2.7-5.9-3.8
			s-4.6-2.2-7.1-3.1c-2.5-1-4.7-2.1-6.6-3.5c-1-0.7-1.8-1.7-2.2-2.8c-0.4-1.1-0.7-2.3-0.7-3.6c0-1.3,0.2-2.7,0.6-4.2
			c0.4-1.5,0.7-2.9,1-4.3c0.6-1.2,1.2-2.4,1.8-3.6c0.6-1.2,1.3-2.2,2.1-3.1c0.8-0.9,1.8-1.7,2.8-2.4c1-0.7,2.4-1.1,4-1.2
			c5.8-1,11.7-1.6,17.5-1.8c5.8-0.1,11.6-0.1,17.4,0.1c5.8,0.2,11.6,0.5,17.4,0.9c5.8,0.4,11.7,0.6,17.7,0.6c4.9,0,10,0,15.1,0.1
			c5.2,0.1,10.3,0.4,15.5,1c5.2,0.6,10.2,1.6,15.1,2.9c4.9,1.3,9.6,3.4,14.1,6.3c2.1,1.3,4,2.8,5.8,4.4c1.8,1.6,3.5,3.3,5,5
			s3,3.7,4.4,5.6c1.3,1.9,2.7,4,4,6.1c2.5,4.5,4.2,9.3,4.8,14.5c0.7,5.2,0.7,10.4,0,15.6c-0.7,5.2-1.9,10.4-3.6,15.4
			c-1.7,5-3.8,9.7-6.2,14c0.7,1.8,1.7,3.5,2.8,5s2.4,3.1,3.7,4.6c1.3,1.5,2.7,3,4,4.5c1.3,1.5,2.7,3,4,4.6c1.3,1.6,2.6,3.2,3.7,4.9
			c1.1,1.7,2.2,3.6,3.1,5.5c1,1.9,1.7,4,2.2,6.2c0.5,2.2,0.8,4.6,0.8,7.3c0.9,4.9,0.9,9.6,0,14.1s-2.4,8.8-4.5,12.8
			c-2.1,4-4.6,7.8-7.6,11.3c-3,3.5-6.2,6.7-9.6,9.5c-4.6,1.9-9.3,3.7-14,5.3c-4.7,1.6-9.5,2.8-14.2,3.7c-4.8,0.9-9.6,1.5-14.5,1.8
			C1937.6,464.4,1932.7,464.4,1927.8,463.9z M1894.1,427.3c5.4-0.6,10.8-0.8,16.3-0.7c5.5,0.2,10.9,0.3,16.4,0.6
			c5.5,0.2,11,0.2,16.5,0c5.5-0.2,11.1-1,16.6-2.4c1-0.1,1.9-0.4,2.7-0.7c0.7-0.3,1.5-0.6,2.2-1c0.7-0.4,1.5-0.8,2.4-1.2
			c0.8-0.4,1.8-0.8,2.8-1.1c1.2-2.7,1.8-5.5,1.8-8.3c0-2.8-0.7-5.9-2-9.2c-1.3-3-3.2-5.6-5.6-7.7c-2.4-2.2-5.1-3.9-8.1-5.3
			c-3-1.3-6.2-2.4-9.6-3.1c-3.4-0.7-6.8-1.3-10.1-1.6c-3.9,0-7.9,0-11.9,0.1c-4,0.1-8,0.3-12,0.6c-4,0.3-7.8,0.8-11.6,1.3
			c-3.7,0.6-7.3,1.5-10.5,2.7c-0.4,3-0.8,6-1,9c-0.2,3-0.4,6-0.6,9c-0.2,3-0.2,5.9-0.2,8.6c0,2.8,0.1,5.4,0.2,8
			c1,0.4,1.9,0.9,2.7,1.3C1892.2,426.7,1893.1,427,1894.1,427.3z M1909.8,350.6c4.2-0.1,8.5-0.5,12.9-1c4.4-0.5,8.6-1.4,12.7-2.6
			c4-1.2,7.8-2.9,11.2-5.2c3.4-2.2,6.2-5.2,8.3-9c0.6-2.1,0.9-4.2,0.8-6.3c-0.1-2.1-0.4-4-0.9-5.8c-0.5-1.8-1.3-3.5-2.2-5.2
			c-1-1.6-2-3.1-3-4.5c-2.4-0.1-4.9-0.4-7.4-0.8c-2.5-0.4-5.1-0.7-7.6-1.1c-2.5-0.4-5-0.8-7.5-1.2c-2.5-0.4-5-0.8-7.5-1
			c-2.5-0.2-5-0.4-7.5-0.4c-2.5-0.1-4.9,0-7.3,0.1c-2.4,0.2-4.8,0.5-7.1,1.1c-2.3,0.6-4.5,1.4-6.6,2.5c-0.8,2.8-1.3,5.8-1.6,8.8
			c-0.3,3-0.5,6-0.6,9c-0.1,3,0,5.9,0.1,8.9c0.1,2.9,0.3,5.6,0.4,8.2c1.8,0.4,3.6,0.9,5.4,1.2c1.8,0.4,3.6,0.8,5.3,1.1
			c1.7,0.4,3.4,0.8,5,1.3C1906.7,349.2,1908.3,349.9,1909.8,350.6z"/>
		<path d="M2209,460.8c-1.3-0.7-2.8-1.3-4.3-1.7c-1.5-0.4-3-0.7-4.5-0.9c-1.5-0.2-3-0.3-4.5-0.3c-1.5,0-3,0-4.5-0.1
			c-1.5-0.1-3-0.1-4.5-0.2c-1.5-0.1-3-0.3-4.4-0.7c-1.4-0.4-2.8-0.9-4.2-1.5c-1.3-0.6-2.6-1.5-3.8-2.7c-1-0.7-2-1.6-2.9-2.6
			c-0.9-1-1.6-2.1-2.1-3.3c-0.5-1.2-0.8-2.5-0.9-3.8c-0.1-1.3,0-2.8,0.3-4.5c0.6-3,1.8-5.4,3.5-7.2c1.7-1.8,3.7-3.3,5.9-4.5
			c2.2-1.2,4.6-2.2,7.1-3.1c2.5-0.9,4.8-1.9,7.1-2.9c-0.2,0-0.2-0.1-0.2-0.4c0-0.3,0-0.6,0-1c0-0.4,0-0.7,0-1.1
			c0-0.4-0.1-0.6-0.2-0.8c-0.8-1-1.4-2-2-2.9c-0.6-0.9-1.2-1.7-1.9-2.5c-0.7-0.7-1.5-1.3-2.4-1.8c-0.9-0.4-2-0.7-3.4-0.7
			c-5.7-0.9-11.4-1.6-17.1-2.1c-5.7-0.5-11.4-0.7-17.1-0.7c-5.7,0.1-11.4,0.4-17.2,1.1c-5.8,0.7-11.5,1.8-17.2,3.3
			c-0.4,0.4-0.8,1-1.1,1.7c-0.3,0.7-0.5,1.4-0.6,2.2c-0.1,0.8-0.1,1.7-0.1,2.7c0,1,0.1,1.9,0.2,2.8c0.6,0.6,1.2,1.2,1.9,1.8
			c0.7,0.6,1.5,1.1,2.4,1.6c0.9,0.4,1.8,0.8,2.8,1.1c1,0.3,2,0.6,3.1,0.9c1.1,0.3,2.2,0.6,3.3,1c1,0.4,2.1,0.8,3,1.1
			c1,0.4,1.9,0.8,2.8,1.3c0.9,0.5,1.6,1.2,2.2,1.9c1,1.6,1.6,3.4,1.7,5.3c0.1,1.9-0.2,3.7-0.7,5.6c-0.5,1.9-1.2,3.7-2.1,5.6
			c-0.9,1.9-1.8,3.6-2.7,5.3c-1.6,1.8-3.9,3.1-6.6,3.8c-2.8,0.8-5.7,1-8.9,0.9c-2.5-0.4-5.1-0.7-7.7-0.8c-2.6-0.1-5.3-0.1-8,0
			c-2.7,0.1-5.4,0.2-8.1,0.3c-2.7,0.2-5.3,0.2-8,0.2c-2.6,0-5.2-0.1-7.9-0.4c-2.6-0.3-5.2-0.7-7.7-1.3c-2.5-0.6-5-1.4-7.3-2.5
			c-2.3-1-4.6-2.4-6.8-4c-0.9-1-1.4-2.3-1.5-3.7c-0.1-1.4,0-3,0.3-4.6c0.3-1.6,0.7-3.3,1.2-4.9c0.5-1.6,0.9-3.2,1.2-4.7
			c1.6-1.8,3.5-3.4,5.5-4.7c2-1.3,4.4-2.2,7.1-2.5c0.9,0.2,1.6,0,2.1-0.3c0.5-0.4,1-0.9,1.3-1.5c0.4-0.6,0.7-1.2,1.1-1.9
			c0.4-0.7,0.9-1.3,1.5-1.9c2.2-3.6,4.2-7.5,5.9-11.7c1.7-4.2,3.4-8.3,4.9-12.5c1.6-4.1,3.2-8.2,4.9-12.1c1.7-4,3.8-7.6,6.2-10.9
			c1.5-3.9,3-7.7,4.6-11.6s3.2-7.6,4.8-11.4c1.6-3.8,3.2-7.7,4.6-11.7c1.4-4,2.7-8,3.9-12.2c0-1.6,0.2-3.2,0.6-4.7
			c0.4-1.5,0.8-2.9,1.3-4.3c0.5-1.3,1-2.7,1.6-4c0.5-1.3,0.9-2.7,1-4c-1.3-0.7-2.7-1.3-4-1.8c-1.3-0.4-2.7-0.8-4.2-1
			c-1.4-0.2-2.9-0.4-4.4-0.6c-1.5-0.1-3-0.3-4.5-0.3c-1.5-0.1-3-0.2-4.6-0.3c-1.6-0.1-3.1-0.3-4.6-0.6c-1.5-0.2-3-0.6-4.4-1
			c-1.4-0.4-2.8-1-4.2-1.8c-1-1.3-1.7-2.9-1.9-4.6c-0.2-1.7-0.3-3.6-0.2-5.7c0.1-2.1,0.3-4.2,0.6-6.3c0.3-2.1,0.4-4.1,0.2-6.1
			c1.5-1.9,3.3-3.4,5.5-4.4c2.2-1,4.5-1.7,7-2.1c2.5-0.4,5-0.7,7.7-0.8c2.7-0.1,5.4-0.2,8.1-0.3c2.7,0,5.4,0,8.1-0.1
			c2.7-0.1,5.4-0.2,8.2-0.3c2.8-0.1,5.5-0.3,8.3-0.3c2.8-0.1,5.5-0.1,8.2,0c2.7,0.1,5.3,0.3,8,0.7c2.6,0.4,5.2,0.9,7.6,1.6
			c2.5,0.7,4.9,1.6,7.2,2.7c2.3,1.1,4.5,2.4,6.6,3.9c0.9,1.6,1.8,3.3,2.6,4.9c0.8,1.6,1.6,3.3,2.5,4.9c0.8,1.6,1.6,3.3,2.2,5
			c0.7,1.7,1.3,3.6,1.9,5.7c1.2,3.9,2.5,7.7,3.9,11.4c1.4,3.7,2.9,7.5,4.5,11.3s3.2,7.7,4.9,11.6c1.7,3.9,3.3,7.9,4.6,11.9
			c1.6,4.2,3.3,8.4,4.9,12.7c1.6,4.3,3.3,8.5,4.9,12.6c1.6,4.1,3.4,8.2,5.2,12.3c1.8,4.1,3.7,8,5.6,11.8c0.9,1.8,1.8,3.6,2.6,5.4
			c0.8,1.8,1.6,3.6,2.5,5.4c0.8,1.8,1.6,3.6,2.4,5.4c0.7,1.8,1.6,3.5,2.6,5.2c1,1.6,2,3.2,3.1,4.6c1.1,1.4,2.4,2.7,3.8,3.9
			c1.4,1.2,3,2.2,4.7,3c1.7,0.8,3.7,1.5,5.9,1.9c1.6,1.2,2.8,2.7,3.5,4.4c0.7,1.7,1,3.6,1,5.6s-0.2,4.1-0.6,6.2
			c-0.4,2.1-0.9,4.2-1.5,6.3c-1,1.3-2.3,2.5-3.7,3.5c-1.4,1-3,1.8-4.6,2.4c-1.6,0.6-3.3,1.1-5,1.6c-1.7,0.4-3.5,0.8-5.4,1
			c-1.9,0.2-3.7,0.4-5.6,0.4c-1.9,0.1-3.7,0.2-5.6,0.2c-1.9,0.1-3.7,0.1-5.5,0.1S2210.6,460.6,2209,460.8z M2146.8,372.4l25.8-0.7
			l-20.2-45.3l-20.9,42.9L2146.8,372.4z"/>
		<path d="M2397.1,463.9c-0.4,0-1-0.1-1.6-0.3c-0.6-0.2-1.2-0.4-1.8-0.6c-2.8-0.3-5.7-0.6-8.6-0.9c-2.9-0.3-5.9-0.5-9.1-0.6
			c-3.1-0.1-6.3-0.2-9.4-0.3c-3.1-0.1-6.3-0.4-9.4-0.7c-2.5-0.1-5.2-0.2-7.9-0.1c-2.7,0.1-5.4,0.2-8.2,0.4c-2.8,0.2-5.5,0.4-8.3,0.7
			c-2.8,0.2-5.5,0.4-8.3,0.4c-2.8,0.1-5.5,0-8.1-0.1c-2.6-0.1-5.1-0.5-7.5-1.1c-2.4-0.6-4.7-1.5-7-2.6c-2.2-1.1-4.3-2.5-6.3-4.2
			c0.1-1.3,0.1-2.7,0-4c-0.2-1.3-0.3-2.8-0.3-4.3c-0.1-1.5,0-3,0.1-4.5c0.1-1.5,0.6-2.9,1.3-4.3c0.7-1.6,1.8-3,3.1-3.9
			c1.3-1,2.9-1.8,4.6-2.4c1.7-0.6,3.5-1,5.4-1.2c1.9-0.2,3.7-0.4,5.5-0.6c0.4-1.5,1-3,1.7-4.4c0.7-1.4,1.3-2.9,1.9-4.4
			c0.6-1.5,1-3,1.1-4.4c0.1-1.4-0.2-2.7-0.9-3.9c1-4.6,1.8-9.5,2.4-14.5c0.5-5,0.5-10.1-0.1-15.1c0.4-5.7,0.7-11.4,0.7-17.1
			c0-5.7-0.1-11.4-0.2-17.1c-0.2-5.7-0.3-11.4-0.4-17.3c-0.2-5.8-0.2-11.7,0-17.5c-0.8-2.2-2-4.1-3.7-5.5c-1.7-1.4-3.7-2.7-5.9-3.8
			s-4.6-2.2-7.1-3.1c-2.5-1-4.7-2.1-6.6-3.5c-1-0.7-1.8-1.7-2.2-2.8c-0.4-1.1-0.7-2.3-0.7-3.6c0-1.3,0.2-2.7,0.6-4.2
			c0.4-1.5,0.7-2.9,1-4.3c0.6-1.2,1.2-2.4,1.8-3.6c0.6-1.2,1.3-2.2,2.1-3.1c0.8-0.9,1.8-1.7,2.8-2.4c1-0.7,2.4-1.1,4-1.2
			c5.8-1,11.7-1.6,17.5-1.8c5.8-0.1,11.6-0.1,17.4,0.1c5.8,0.2,11.6,0.5,17.4,0.9c5.8,0.4,11.7,0.6,17.7,0.6c4.9,0,10,0,15.1,0.1
			c5.2,0.1,10.3,0.4,15.5,1c5.2,0.6,10.2,1.6,15.1,2.9c4.9,1.3,9.6,3.4,14.1,6.3c2.1,1.3,4,2.8,5.8,4.4c1.8,1.6,3.5,3.3,5,5
			s3,3.7,4.4,5.6c1.3,1.9,2.7,4,4,6.1c2.5,4.5,4.2,9.3,4.8,14.5c0.7,5.2,0.7,10.4,0,15.6c-0.7,5.2-1.9,10.4-3.6,15.4
			c-1.7,5-3.8,9.7-6.2,14c0.7,1.8,1.7,3.5,2.8,5s2.4,3.1,3.7,4.6c1.3,1.5,2.7,3,4,4.5c1.3,1.5,2.7,3,4,4.6c1.3,1.6,2.6,3.2,3.7,4.9
			c1.1,1.7,2.2,3.6,3.1,5.5c1,1.9,1.7,4,2.2,6.2c0.5,2.2,0.8,4.6,0.8,7.3c0.9,4.9,0.9,9.6,0,14.1s-2.4,8.8-4.5,12.8
			c-2.1,4-4.6,7.8-7.6,11.3c-3,3.5-6.2,6.7-9.6,9.5c-4.6,1.9-9.3,3.7-14,5.3c-4.7,1.6-9.5,2.8-14.2,3.7c-4.8,0.9-9.6,1.5-14.5,1.8
			C2406.9,464.4,2402,464.4,2397.1,463.9z M2363.4,427.3c5.4-0.6,10.8-0.8,16.3-0.7c5.5,0.2,10.9,0.3,16.4,0.6
			c5.5,0.2,11,0.2,16.5,0c5.5-0.2,11.1-1,16.6-2.4c1-0.1,1.9-0.4,2.7-0.7c0.7-0.3,1.5-0.6,2.2-1c0.7-0.4,1.5-0.8,2.4-1.2
			c0.8-0.4,1.8-0.8,2.8-1.1c1.2-2.7,1.8-5.5,1.8-8.3c0-2.8-0.7-5.9-2-9.2c-1.3-3-3.2-5.6-5.6-7.7c-2.4-2.2-5.1-3.9-8.1-5.3
			c-3-1.3-6.2-2.4-9.6-3.1c-3.4-0.7-6.8-1.3-10.1-1.6c-3.9,0-7.9,0-11.9,0.1c-4,0.1-8,0.3-12,0.6c-4,0.3-7.8,0.8-11.6,1.3
			c-3.7,0.6-7.3,1.5-10.5,2.7c-0.4,3-0.8,6-1,9c-0.2,3-0.4,6-0.6,9c-0.2,3-0.2,5.9-0.2,8.6c0,2.8,0.1,5.4,0.2,8
			c1,0.4,1.9,0.9,2.7,1.3C2361.5,426.7,2362.4,427,2363.4,427.3z M2379.1,350.6c4.2-0.1,8.5-0.5,12.9-1c4.4-0.5,8.6-1.4,12.7-2.6
			c4-1.2,7.8-2.9,11.2-5.2c3.4-2.2,6.2-5.2,8.3-9c0.6-2.1,0.9-4.2,0.8-6.3c-0.1-2.1-0.4-4-0.9-5.8c-0.5-1.8-1.3-3.5-2.2-5.2
			c-1-1.6-2-3.1-3-4.5c-2.4-0.1-4.9-0.4-7.4-0.8c-2.5-0.4-5.1-0.7-7.6-1.1c-2.5-0.4-5-0.8-7.5-1.2c-2.5-0.4-5-0.8-7.5-1
			c-2.5-0.2-5-0.4-7.5-0.4c-2.5-0.1-4.9,0-7.3,0.1c-2.4,0.2-4.8,0.5-7.1,1.1c-2.3,0.6-4.5,1.4-6.6,2.5c-0.8,2.8-1.3,5.8-1.6,8.8
			c-0.3,3-0.5,6-0.6,9c-0.1,3,0,5.9,0.1,8.9c0.1,2.9,0.3,5.6,0.4,8.2c1.8,0.4,3.6,0.9,5.4,1.2c1.8,0.4,3.6,0.8,5.3,1.1
			c1.7,0.4,3.4,0.8,5,1.3C2376.1,349.2,2377.6,349.9,2379.1,350.6z"/>
		<path d="M2729.5,462.6l-15-2.9c0-0.3-0.1-0.6-0.3-0.9c-0.2-0.3-0.6-0.5-1.2-0.7c-3.7-1.8-7.3-3-10.8-3.6
			c-3.4-0.6-6.9-0.9-10.3-0.9c-3.4,0-6.9,0.3-10.4,0.9c-3.5,0.6-7.1,1.2-10.9,1.8c-1-0.6-2-1.3-2.8-2.1c-0.8-0.8-1.5-1.8-2.1-2.8
			c-0.6-1-1.1-2.1-1.6-3.3c-0.4-1.1-1-2.4-1.6-3.7c-0.9-3-1.6-6.2-2-9.5c-0.4-3.4-0.7-6.8-0.7-10.4s0.2-7.1,0.7-10.7
			c0.4-3.5,1-6.9,1.8-10.2c1-1.3,2.3-2.6,3.7-3.8c1.4-1.2,3-2.2,4.7-3.1c1.7-0.9,3.6-1.6,5.7-2c2.1-0.4,4.3-0.4,6.7,0
			c1,0.3,1.9,0.8,2.7,1.3c0.7,0.6,1.4,1.3,2,2.1c0.6,0.8,1.1,1.7,1.6,2.7c0.4,1,0.9,1.9,1.3,2.9c0.4,1,0.9,2,1.2,3
			c0.4,1,0.8,2.1,1.2,3c0.4,1,0.9,1.9,1.5,2.8c0.5,0.9,1.2,1.7,2.1,2.5c3.6,2.8,7.6,5.3,12.1,7.4c4.5,2.1,9.2,3.7,14,4.9
			c4.9,1.2,9.9,1.9,15,2c5.2,0.2,10.2-0.3,15.1-1.3c2.1-0.6,4.2-1.3,6.3-2.1c2.1-0.8,4.1-1.9,5.9-3.1c1.9-1.3,3.6-2.7,5-4.4
			c1.5-1.6,2.6-3.6,3.4-5.8c0.1-1.9,0.1-4,0-6.1c-0.2-2.1-0.6-4.2-1.2-6.2s-1.6-3.8-2.8-5.4c-1.2-1.6-2.8-2.7-4.7-3.5
			c-2.5-0.1-5-0.6-7.5-1.2s-4.9-1.4-7.3-2.2c-2.4-0.8-4.7-1.7-7-2.7c-2.2-1-4.4-1.8-6.5-2.6c-4.5-1-9-2.2-13.5-3.4
			c-4.5-1.2-9-2.5-13.5-3.8c-4.5-1.3-8.9-2.9-13.1-4.7c-4.3-1.8-8.4-3.8-12.5-6.1c-0.2-0.9-0.5-1.6-1.1-2.2
			c-0.6-0.6-1.2-1.1-1.9-1.6c-0.7-0.4-1.3-0.9-2-1.5c-0.7-0.5-1.3-1.2-1.9-1.9c-0.8-1.3-1.6-2.5-2.5-3.6c-0.9-1-1.8-2.1-2.6-3
			c-0.8-1-1.6-2-2.4-3.1c-0.8-1.1-1.3-2.4-1.8-3.9c-1.6-5.1-2.5-10.2-2.5-15.3c0-5.1,0.7-10,2-14.8c1.3-4.8,3.3-9.3,5.8-13.6
			c2.5-4.3,5.5-8,8.8-11.3c1.2-0.9,2.4-1.9,3.7-3c1.3-1.1,2.5-2.3,3.8-3.6c1.3-1.3,2.5-2.5,3.8-3.8c1.3-1.3,2.7-2.4,4.2-3.5
			c1.3,0,2.7-0.2,3.9-0.6c1.3-0.4,2.5-0.8,3.8-1.3c1.3-0.5,2.5-1,3.8-1.6c1.3-0.5,2.7-0.9,4.2-1.2c2.5-0.9,5.2-1.5,7.9-1.9
			c2.7-0.4,5.4-0.6,8.1-0.6s5.4,0.2,8.2,0.4c2.8,0.3,5.6,0.7,8.4,1.1c2.8,0.4,5.7,0.9,8.5,1.5c2.8,0.5,5.6,1,8.4,1.5
			c2.8,0.4,5.5,0.8,8.3,1c2.8,0.2,5.5,0.3,8.2,0.1c1-0.6,2.3-1,3.7-1.1c1.4-0.1,2.8-0.1,4.3,0.1c1.4,0.2,2.8,0.6,4.2,1.1
			c1.3,0.5,2.7,1.1,4,1.7c0.7,0.3,1.3,0.8,1.7,1.3c0.4,0.6,0.7,1.2,0.9,1.8c0.2,0.6,0.5,1.2,0.8,1.8c0.3,0.6,0.8,1.1,1.6,1.6
			c1.3,3.4,2.3,6.9,2.9,10.3c0.6,3.4,1,6.9,1.2,10.4c0.2,3.5,0.3,7.1,0.2,10.7c-0.1,3.6-0.1,7.2-0.1,10.8c-0.3,1.5-0.6,3-1,4.4
			c-0.4,1.4-0.9,2.8-1.6,4c-0.7,1.3-1.5,2.3-2.6,3.1c-1,0.8-2.4,1.2-4,1.2c-3,0.9-5.6,1.3-7.9,1.2c-2.2-0.1-4.3-0.5-6.2-1.3
			c-1.9-0.8-3.6-1.9-5-3.4c-1.5-1.4-2.9-3-4.2-4.8c-1.3-1.8-2.5-3.7-3.7-5.7c-1.2-2-2.4-4-3.7-5.9c-1.3-1.9-2.6-3.8-4-5.5
			c-1.4-1.7-3-3.3-4.8-4.6c-1.8,0-3.6-0.1-5.5-0.4c-1.9-0.3-3.7-0.6-5.6-0.9c-1.9-0.3-3.7-0.6-5.6-1c-1.9-0.4-3.7-0.7-5.6-1
			c-1.9-0.3-3.7-0.5-5.6-0.6c-1.9-0.1-3.7,0-5.5,0.3c-1.8,0.3-3.6,0.8-5.3,1.3c-1.7,0.6-3.4,1.4-5,2.5c-1.9,1.2-3.6,2.7-4.9,4.5
			c-1.3,1.8-2.4,3.8-3.1,6.1c-0.8,2.2-1.1,4.6-1.1,7.1c0,2.5,0.4,5,1.1,7.5c1.5,2.7,3.2,4.9,5.2,6.5c1.9,1.6,4.1,3,6.5,4
			c2.4,1,5,1.9,7.7,2.5c2.8,0.6,5.6,1.3,8.4,2c2.1,0.8,4.3,1.4,6.6,2c2.3,0.6,4.7,1.3,7.3,2c2.5,0.8,5,1.5,7.5,2.4
			c2.5,0.8,4.9,1.8,7.3,2.8c3.6,0.4,7.1,1.2,10.4,2.2c3.4,1,6.6,2.3,9.8,3.8c3.1,1.5,6.1,3.2,9,5.2c2.8,1.9,5.4,4,7.6,6.3
			c1.2,0.8,2.2,1.7,3.1,2.8c0.9,1.1,1.8,2.3,2.6,3.6c0.8,1.3,1.6,2.5,2.5,3.8c0.8,1.3,1.6,2.5,2.4,3.7c0.4,3,0.9,6.1,1.3,9.3
			c0.4,3.2,0.7,6.4,0.9,9.6c0.1,3.2-0.1,6.4-0.7,9.6c-0.6,3.2-1.8,6.4-3.6,9.5c-1.9,3.4-4.1,6.8-6.5,10.2c-2.4,3.4-5.1,6.5-8.1,9.4
			c-3,2.9-6.3,5.5-10,7.7c-3.7,2.2-7.7,3.9-12.2,4.9c-3.1,1-6.4,1.9-9.8,2.5c-3.4,0.6-6.7,1-10,1.3c-3.3,0.3-6.6,0.5-10,0.6
			C2736.1,462.5,2732.8,462.6,2729.5,462.6z"/>
		<path d="M2901.5,459.6c-1.9-0.6-4-1-6.1-1.3c-2.1-0.3-4.2-0.5-6.3-0.6c-2.1-0.1-4.2-0.1-6.3-0.1c-2.1,0-4.2,0-6.2-0.1
			c-2-0.1-4-0.2-5.9-0.3c-1.9-0.1-3.9-0.4-5.7-0.9c-1.9-0.4-3.6-1.1-5.3-2c-1.6-0.9-3.3-2-4.9-3.4c-0.3-0.9-0.6-1.9-0.8-2.9
			c-0.2-1-0.4-2.2-0.6-3.4c-0.2-1.2-0.3-2.4-0.3-3.6c-0.1-1.2-0.2-2.5-0.3-3.8c0.4-2.1,1.4-3.9,2.8-5.4c1.4-1.5,3-2.8,4.8-4
			c1.8-1.2,3.7-2.3,5.7-3.3c2-1,3.8-2,5.5-3l0.4-67.8c-0.3-3.4-0.4-6.8-0.3-10.2c0.1-3.4,0.2-6.8,0.4-10.2c0.2-3.4,0.4-6.9,0.6-10.4
			c0.1-3.5,0.1-7.1-0.2-10.7c0.3-2.1,0.1-3.8-0.6-5.2c-0.7-1.3-1.6-2.5-2.9-3.5c-1.3-1-2.7-1.8-4.4-2.6c-1.6-0.7-3.2-1.6-4.7-2.5
			c-1.9-1-3.6-2.4-4.8-4c-1.3-1.6-2.2-3.5-2.7-5.6c-0.5-2.1-0.7-4.3-0.6-6.5c0.1-2.2,0.7-4.5,1.6-6.7c0.6-0.3,1.1-0.7,1.6-1.1
			c0.4-0.4,0.9-0.9,1.5-1.3c0.5-0.4,1-0.9,1.6-1.3c0.5-0.4,1.2-0.7,1.9-0.9c5.2-1.2,10.6-1.9,16.2-2.2c5.5-0.3,11.1-0.3,16.6,0
			c5.5,0.3,11,0.9,16.3,1.8c5.3,0.9,10.4,1.9,15.1,2.9c0.9,1.3,1.8,2.9,2.8,4.6c1,1.7,1.7,3.6,2.2,5.6c0.5,2,0.8,4.1,0.8,6.2
			c0,2.1-0.5,4.1-1.6,6.1c-0.9,1.6-2.1,2.8-3.6,3.6c-1.5,0.8-3.1,1.3-4.9,1.6c-1.8,0.3-3.7,0.6-5.7,0.8c-2,0.2-4,0.6-5.9,1
			c-0.9,2.8-1.6,5.9-2.1,9.3c-0.5,3.4-0.8,6.8-0.9,10.3c-0.1,3.5,0.1,7,0.6,10.5c0.4,3.5,1.1,6.9,2,10.2c4.8,1.2,9.7,2.2,14.8,3
			c5.1,0.8,10.2,1.4,15.3,1.7c5.1,0.3,10.2,0.3,15.4-0.1c5.2-0.4,10.3-1.2,15.4-2.4c0.9-1.2,1.6-2.5,2-3.8c0.4-1.3,0.8-2.8,1-4.3
			c0.2-1.5,0.3-3,0.3-4.5c0-1.5-0.1-3.1-0.2-4.7c-0.2-1.6-0.3-3.3-0.6-4.9c-0.2-1.6-0.4-3.3-0.6-4.9c-0.2-1.6-0.3-3.3-0.4-4.9
			c-0.2-1.6-0.2-3.3,0-4.9c-1-1.8-2.4-3.3-3.9-4.4c-1.6-1.1-3.3-2.1-5.2-3c-1.9-0.9-3.9-1.7-6.1-2.5c-2.2-0.7-4.3-1.6-6.4-2.5
			c-0.9-1-1.7-2.1-2.4-3c-0.7-1-1.2-2-1.5-3.1c-0.3-1.1-0.5-2.4-0.6-3.7c-0.1-1.3,0-2.8,0.3-4.5c0-0.7,0.1-1.6,0.2-2.6
			c0.1-1,0.4-1.9,0.9-2.7c0.4-0.8,1-1.6,1.8-2.2c0.7-0.7,1.6-1.2,2.5-1.5c5.4-1.3,10.9-2.2,16.6-2.7c5.7-0.4,11.4-0.6,17.3-0.3
			c5.8,0.2,11.6,0.8,17.4,1.6c5.8,0.8,11.4,1.9,16.9,3.3c1.2,1,2.1,2.2,2.8,3.5c0.7,1.3,1.2,2.7,1.6,4.3c0.4,1.6,0.6,3.3,0.7,5
			c0.1,1.8,0,3.6-0.1,5.4c-0.3,1.6-1,3-2.2,4c-1.2,1-2.6,1.9-4.2,2.7c-1.6,0.8-3.2,1.5-4.9,2.1c-1.7,0.7-3.3,1.5-4.8,2.6
			c-0.8,3.7-1.3,7.7-1.6,12c-0.3,4.3-0.5,8.6-0.7,13c-0.2,4.4-0.3,8.9-0.3,13.5c-0.1,4.6-0.3,9.1-0.8,13.6
			c-0.2,5.4-0.2,10.8-0.1,16.4c0.1,5.5,0.2,11.1,0.4,16.7c0.2,5.6,0.6,11.1,1,16.6c0.4,5.5,1,10.9,1.6,16.3c0.3,0.2,0.7,0.3,1.1,0.3
			c0.4,0.1,0.9,0.2,1.3,0.3c0.4,0.2,0.9,0.3,1.5,0.6c0.5,0.2,1.1,0.6,1.7,1.2c1.6,1.5,3.2,3.2,4.6,5.2c1.4,1.9,2.6,4.1,3.5,6.4
			c0.9,2.3,1.5,4.8,1.7,7.3c0.2,2.5,0,5.2-0.8,7.9c-0.6,1-1.4,2-2.4,2.8c-1,0.8-2.1,1.5-3.5,2.1c-1.3,0.6-2.8,1-4.4,1.3
			c-1.6,0.3-3.2,0.4-4.8,0.4c-2.4-0.3-4.9-0.5-7.4-0.6c-2.5-0.1-5.1-0.1-7.7-0.1c-2.6,0-5.3,0-8,0.1c-2.7,0.1-5.3,0.1-8,0
			c-2.6-0.1-5.2-0.3-7.7-0.7c-2.5-0.4-5-0.9-7.4-1.7c-2.4-0.7-4.7-1.8-6.8-3c-2.2-1.3-4.2-2.9-6.2-4.8c-0.4-1.2-0.8-2.6-1-4.2
			c-0.2-1.6-0.3-3.2-0.2-4.8c0.1-1.6,0.4-3.2,0.9-4.7c0.5-1.5,1.2-2.8,2.1-4c2.8-1.6,5.8-3,9-4c3.1-1,6.7-1.7,10.5-2
			c0.9-2.7,1.6-5.6,2.1-8.8c0.5-3.1,0.8-6.4,0.9-9.8c0.1-3.4-0.1-6.8-0.4-10.2c-0.4-3.4-1-6.7-1.9-9.9c-4.8-1.6-9.8-2.9-14.9-3.7
			c-5.2-0.8-10.4-1.3-15.7-1.6c-5.3-0.2-10.6-0.1-15.9,0.2c-5.3,0.4-10.4,1-15.4,1.9c-0.6,3.4-1.2,6.8-1.7,10
			c-0.5,3.2-0.9,6.4-1,9.6c-0.2,3.2-0.1,6.5,0.2,9.8c0.3,3.3,0.9,6.7,1.8,10.1c0.9,1.3,2.1,2.4,3.7,3c1.6,0.7,3.3,1.3,5,1.8
			c1.8,0.5,3.6,1.1,5.3,1.7c1.7,0.6,3.3,1.5,4.6,2.7c1,0.9,2,2,2.8,3.4c0.8,1.3,1.5,2.8,1.9,4.5c0.4,1.6,0.7,3.4,0.8,5.2
			c0.1,1.8-0.1,3.6-0.6,5.4c-1.6,1.8-3.5,3.4-5.6,4.7c-2.1,1.3-4.4,2.5-6.8,3.4s-5,1.6-7.7,2
			C2906.9,459.4,2904.2,459.6,2901.5,459.6z"/>
		<path d="M3132.3,461.9c-1.9-0.9-3.9-1.5-5.9-1.9c-2-0.4-3.9-0.8-5.7-1.2c-1.8-0.4-3.6-1-5.3-1.6c-1.7-0.6-3.3-1.6-4.8-2.9
			c-4.2-1.5-8.2-3.2-12.1-5c-3.9-1.9-7.6-4-11.1-6.3c-3.5-2.3-6.7-4.9-9.6-7.7c-2.9-2.8-5.6-6.1-8-9.6c-0.9-1.9-2-3.8-3.3-5.5
			c-1.3-1.7-2.6-3.4-3.9-5.2c-1.3-1.7-2.6-3.6-3.8-5.5c-1.2-1.9-2.2-4.1-3.1-6.5c-0.2-2.1-0.5-4.2-1.1-6.3c-0.6-2.1-1-4.2-1.3-6.3
			c-0.3-2.1-0.4-4.1-0.3-5.9c0.1-1.9,0.7-3.6,1.9-5c-0.2-0.4-0.3-0.8-0.6-1c-0.2-0.2-0.4-0.4-0.6-0.7c-0.2-0.2-0.3-0.5-0.4-0.8
			c-0.2-0.3-0.2-0.7-0.2-1.3c-0.2-3.6-0.1-7.3,0.1-11.1s0.6-7.6,1.1-11.3c0.5-3.7,1.3-7.4,2.2-11c1-3.6,2.2-6.9,3.7-9.9
			c0.4-1.8,1-3.7,1.8-5.6c0.7-1.9,1.6-3.9,2.5-5.8c0.9-1.9,1.9-3.8,3-5.7c1.1-1.9,2.3-3.6,3.5-5.3c2.8-2.8,5.6-5.8,8.3-9
			c2.7-3.1,5.6-6.1,8.6-8.9c3.1-2.8,6.4-5.3,10-7.5s7.6-4,11.9-5.2c4-1.2,8.3-2.2,12.7-3.1c4.4-0.9,8.8-1.5,13.2-1.8
			c4.4-0.3,8.9-0.3,13.3,0c4.5,0.3,8.9,1.1,13.2,2.5c4,1.8,7.8,3.8,11.3,5.9c3.5,2.2,6.9,4.6,10.1,7.2c3.2,2.6,6.2,5.4,9.1,8.4
			c2.8,3,5.6,6.1,8.3,9.4c2.4,3.3,4.6,6.9,6.7,10.9c2.1,4,4,8,5.8,12.2c1.8,4.2,3.4,8.5,4.7,12.9c1.3,4.4,2.5,8.7,3.6,12.9
			c-0.4,1.5-0.6,3-0.4,4.5c0.1,1.5,0.3,3,0.6,4.6c0.2,1.6,0.4,3.1,0.6,4.7c0.1,1.6,0.1,3.3-0.2,5c-0.6,1.6-1.1,3.3-1.5,4.8
			c-0.4,1.6-0.7,3.2-1,4.8c-0.3,1.6-0.5,3.3-0.7,4.8c-0.2,1.6-0.4,3.2-0.7,4.8c-0.3,1.6-0.6,3.3-0.9,4.8c-0.3,1.6-0.7,3.1-1.2,4.7
			c-0.5,1.6-1.1,3.1-1.8,4.6c-0.7,1.5-1.6,3-2.8,4.5c-0.6,0.8-1.2,1.5-1.9,2.1s-1.2,1.4-1.7,2.1c-0.4,0.8-0.8,1.6-1.1,2.6
			c-0.3,1-0.4,2.1-0.4,3.5c-1,0.3-1.8,0.9-2.4,1.7c-0.5,0.8-1,1.7-1.3,2.6c-0.4,0.9-0.8,1.7-1.3,2.5c-0.5,0.8-1.3,1.2-2.4,1.3
			c-0.8,1.5-1.8,2.8-3,3.8c-1.3,1-2.7,2.1-4.2,3c-1.5,1-3,1.9-4.5,2.7c-1.5,0.8-2.9,1.8-4.3,3c-3.1,3-6.7,5.6-10.5,7.9
			c-3.9,2.2-8,4.1-12.5,5.6c-4.4,1.5-9,2.6-13.7,3.3C3141.9,461.8,3137.1,462,3132.3,461.9z M3141.1,427.8c2.4-0.6,4.9-1.2,7.4-1.9
			c2.5-0.7,5-1.5,7.4-2.6c2.4-1,4.6-2.2,6.6-3.6c2-1.3,3.8-2.9,5.3-4.7c0-0.7,0.1-1.3,0.4-1.8c0.3-0.4,0.6-0.8,1-1.1
			c0.4-0.3,0.8-0.5,1.2-0.7c0.4-0.1,0.9-0.3,1.3-0.4c0-1.6,0.3-3.1,0.9-4.3c0.6-1.2,1.3-2.3,2.2-3.3c0.9-1,1.8-1.9,2.6-2.9
			c0.8-1,1.5-2.1,1.9-3.3c0.1-0.9,0.4-1.7,0.8-2.4c0.4-0.7,0.7-1.3,1-1.9c0.3-0.6,0.6-1.2,0.8-1.9s0.3-1.5,0.3-2.6
			c0.1-1.6,0.3-3.3,0.6-4.9c0.2-1.6,0.5-3.3,0.9-4.9c0.4-1.6,0.9-3.2,1.5-4.7c0.6-1.5,1.3-2.8,2.2-4c0.4-1.6,0.7-3.1,0.7-4.4
			c0-1.3-0.2-2.5-0.4-3.6c-0.3-1.1-0.6-2.3-0.8-3.6c-0.2-1.3-0.3-2.7-0.3-4.2c-0.9-2.1-1.8-4.2-2.6-6.3c-0.8-2.1-1.6-4.2-2.5-6.3
			c-0.8-2.1-1.7-4.2-2.6-6.2c-0.9-2-1.9-4-2.9-5.9c-1-1.9-2.1-3.8-3.3-5.5c-1.1-1.7-2.4-3.3-3.9-4.7c-1.5-1.4-3.1-2.7-4.8-3.8
			c-1.7-1.1-3.6-2.1-5.7-3c-2.4-2.2-5-3.8-7.9-4.6c-2.8-0.8-5.7-1.3-8.5-1.3c-2.8-0.1-5.8,0.1-8.8,0.6c-3,0.4-5.8,0.8-8.5,1.1
			c-2.2,1-4.6,2-7,2.9c-2.4,0.9-4.6,1.9-6.7,2.9c-2.1,1-4.1,2.3-5.9,3.7c-1.9,1.4-3.3,3.2-4.4,5.3c-1.6,4.5-3.3,8.9-4.8,13.3
			c-1.6,4.4-3,8.8-4.3,13.2c-1.3,4.4-2.3,8.9-3.1,13.6c-0.8,4.6-1.3,9.5-1.5,14.6c0.6,3.7,1.6,7.3,2.9,10.8c1.3,3.4,2.9,6.8,4.7,10
			c1.8,3.2,3.8,6.2,6.1,9.1c2.2,2.8,4.4,5.6,6.5,8.3c5.7,2.7,11.3,4.9,16.8,6.7C3129.6,424.4,3135.2,426.1,3141.1,427.8z"/>
		<path d="M3273.1,463c-0.9-0.3-1.9-0.6-2.9-0.9c-1-0.3-2.1-0.6-3.1-0.9c-1-0.3-2.1-0.6-3.1-1c-1-0.4-2-1-2.9-1.9
			c-1-0.9-2-2-2.8-3.3c-0.8-1.3-1.4-2.7-1.8-4.2c-0.4-1.5-0.5-3.1-0.4-4.7c0.1-1.6,0.4-3.3,1-4.9c0.4-1.3,1-2.5,1.7-3.6
			c0.7-1,1.5-1.9,2.4-2.7c0.9-0.7,1.9-1.4,2.9-2c1-0.6,2.2-1.1,3.4-1.5c1.2-0.4,2.4-0.7,3.6-1.1c1.2-0.4,2.4-0.7,3.7-1.1
			c1.3-0.4,2.5-0.7,3.6-1.1c1.1-0.4,2.2-0.9,3.3-1.5l1.6-48.2c-0.2-0.4-0.3-0.9-0.4-1.2c-0.2-0.4-0.3-0.7-0.4-1
			c-0.2-0.3-0.4-0.5-0.7-0.7c-0.2-1.6-0.3-3.4-0.4-5.4c-0.2-1.9-0.2-3.9,0-5.9c0.1-2,0.4-4,0.8-5.9c0.4-1.9,0.9-3.7,1.5-5.4
			c-0.6-4-0.9-8-0.9-11.9c0-3.9,0-7.7-0.1-11.6c-0.1-3.8-0.3-7.6-0.8-11.3c-0.4-3.7-1.5-7.5-3.1-11.2c-2.5-0.4-5-0.9-7.5-1.5
			c-2.5-0.5-5.2-1.2-8.2-1.9c-1.3-0.7-2.3-1.6-2.9-2.5c-0.6-0.9-1.1-1.8-1.5-2.8c-0.4-1-0.7-1.9-1-2.9c-0.3-1-0.8-1.9-1.6-2.8
			c0.4-1,0.7-2.2,0.7-3.4c0-1.2,0-2.4-0.1-3.7c-0.1-1.3,0-2.5,0.2-3.8c0.2-1.3,0.8-2.5,1.7-3.7c0.6-1.2,1.3-2.2,2.1-3.1
			c0.8-0.9,1.7-1.6,2.7-2.1c1-0.5,2.1-0.9,3.3-1.1c1.2-0.2,2.4-0.4,3.6-0.6c1.2-0.1,2.5-0.2,3.8-0.1c1.3,0.1,2.7,0.2,4,0.2
			c1.3,0.1,2.7,0.1,4,0.1c1.3,0,2.6,0,3.8,0c5.5,0.4,11.3,0.6,17.2,0.4c5.9-0.1,11.8-0.3,17.7-0.4c5.9-0.1,11.6-0.3,17.2-0.3
			c5.5-0.1,10.6,0.3,15.3,1l2.2-2.9c1.8,0.2,3.7,0.5,5.8,1c2.1,0.5,4,1.2,5.6,2.1c0.1,0.6,0.6,1,1.2,1.2c0.7,0.2,1.5,0.3,2.4,0.2
			c0.9-0.1,1.8-0.2,2.6-0.4c0.8-0.2,1.5-0.5,2.1-0.8c1.8,1,3.8,1.9,6.1,2.7c2.2,0.8,4.6,1.5,7,2.4c2.4,0.8,4.7,1.7,6.8,2.7
			c2.2,1,4.1,2.1,5.7,3.5c0.6,0.8,1.4,1.4,2.4,2c1,0.6,1.9,1.2,2.8,1.9c0.9,0.7,1.7,1.3,2.5,2c0.7,0.7,1.2,1.6,1.3,2.8
			c3.1,3.3,5.8,7.1,7.9,11.6c2.1,4.4,3.7,9.1,4.7,14.1c1,5,1.5,10.2,1.5,15.5c-0.1,5.3-0.6,10.5-1.5,15.6c-1.2,4.3-2.9,8.3-5,11.9
			c-2.2,3.6-4.6,6.9-7.4,10c-2.8,3.1-5.7,5.9-8.9,8.6s-6.4,5.4-9.9,8.1c-1.3-0.1-2.5,0.1-3.4,0.7c-0.9,0.6-1.8,1.3-2.7,2
			c-0.9,0.8-1.9,1.5-2.9,2.2c-1,0.8-2.4,1.1-4,1.1c-2.2,1.2-4.5,2.1-6.7,2.8s-4.6,1.2-7.1,1.5c-2.5,0.3-4.9,0.5-7.4,0.6
			c-2.5,0.1-4.9,0.1-7.4,0c-2.5-0.1-5-0.1-7.5-0.2c-2.5-0.1-5.1-0.1-7.6,0c-2.5,0.1-5,0.3-7.5,0.7c-2.5,0.4-4.9,0.9-7.3,1.7
			c0,3,0.1,6.1,0.3,9.3c0.2,3.2,0.5,6.6,0.8,10.2c0.1,1,0.7,1.9,1.6,2.5c0.9,0.6,1.9,1.1,3.1,1.6c1.2,0.4,2.5,0.9,3.8,1.2
			c1.3,0.4,2.5,0.9,3.6,1.5c1.3,0.9,2.8,1.6,4.3,2c1.5,0.4,3.1,0.8,4.7,1c1.6,0.2,3.3,0.3,5,0.3c1.7,0,3.4,0,5.2,0
			c1.7,0,3.4,0,5.2,0.1c1.7,0.1,3.4,0.3,5,0.7c1.6,0.4,3.2,1,4.7,1.8c1.5,0.8,2.8,1.8,4,3c0.7,1.5,1.3,3.1,1.7,4.9
			c0.4,1.8,0.6,3.6,0.6,5.4s-0.2,3.6-0.7,5.5c-0.4,1.9-1,3.7-1.8,5.5c-1.9,1.8-4.1,3-6.4,3.7c-2.3,0.7-4.8,1.1-7.4,1.2
			c-2.6,0.2-5.3,0.2-8.1,0c-2.8-0.1-5.5-0.1-8.2,0.2c-11.2,0.2-22.5,0.3-33.8,0.4C3295.1,462.9,3284,463,3273.1,463z M3334.8,364.1
			c4.3,0.2,8.8,0.1,13.5-0.2c4.6-0.3,9.2-1,13.6-2.1c4.4-1.1,8.6-2.8,12.5-4.9c3.9-2.2,7.1-5,9.6-8.4c1.3-2.1,2.4-4.3,3.3-6.7
			c0.8-2.4,1.3-4.8,1.6-7.3c0.2-2.5,0.1-4.9-0.3-7.2c-0.4-2.3-1.3-4.4-2.5-6.4c-1.3-2.1-2.9-3.9-4.6-5.5c-1.7-1.6-3.6-2.9-5.7-4
			c-2.1-1.1-4.3-2.1-6.6-2.8c-2.3-0.7-4.7-1.3-7.1-1.8c-2.4-0.4-4.9-0.8-7.5-1c-2.6-0.2-5.2-0.4-7.7-0.4c-2.5-0.1-5-0.1-7.5-0.1
			c-2.5,0-4.8,0-7.1,0c-2.8,0-5.3,0-7.5,0c-2.2,0-4.5,0-6.8,0l-1.1,58.3L3334.8,364.1z"/>
		<path d="M3482.7,463c-0.9-0.3-1.9-0.6-2.9-0.9c-1-0.3-2.1-0.6-3.1-0.9c-1-0.3-2.1-0.6-3.1-1c-1-0.4-2-1-2.9-1.9
			c-1-0.9-2-2-2.8-3.3c-0.8-1.3-1.4-2.7-1.8-4.2c-0.4-1.5-0.5-3.1-0.4-4.7c0.1-1.6,0.4-3.3,1-4.9c0.4-1.3,1-2.5,1.7-3.6
			c0.7-1,1.5-1.9,2.4-2.7c0.9-0.7,1.9-1.4,2.9-2c1-0.6,2.2-1.1,3.4-1.5c1.2-0.4,2.4-0.7,3.6-1.1c1.2-0.4,2.4-0.7,3.7-1.1
			c1.3-0.4,2.5-0.7,3.6-1.1c1.1-0.4,2.2-0.9,3.3-1.5l1.6-48.2c-0.2-0.4-0.3-0.9-0.4-1.2c-0.2-0.4-0.3-0.7-0.4-1
			c-0.2-0.3-0.4-0.5-0.7-0.7c-0.2-1.6-0.3-3.4-0.4-5.4c-0.2-1.9-0.2-3.9,0-5.9c0.1-2,0.4-4,0.8-5.9c0.4-1.9,0.9-3.7,1.5-5.4
			c-0.6-4-0.9-8-0.9-11.9c0-3.9,0-7.7-0.1-11.6c-0.1-3.8-0.3-7.6-0.8-11.3c-0.4-3.7-1.5-7.5-3.1-11.2c-2.5-0.4-5-0.9-7.5-1.5
			c-2.5-0.5-5.2-1.2-8.2-1.9c-1.3-0.7-2.3-1.6-2.9-2.5c-0.6-0.9-1.1-1.8-1.5-2.8c-0.4-1-0.7-1.9-1-2.9c-0.3-1-0.8-1.9-1.6-2.8
			c0.4-1,0.7-2.2,0.7-3.4c0-1.2,0-2.4-0.1-3.7c-0.1-1.3,0-2.5,0.2-3.8c0.2-1.3,0.8-2.5,1.7-3.7c0.6-1.2,1.3-2.2,2.1-3.1
			c0.8-0.9,1.7-1.6,2.7-2.1c1-0.5,2.1-0.9,3.3-1.1c1.2-0.2,2.4-0.4,3.6-0.6c1.2-0.1,2.5-0.2,3.8-0.1c1.3,0.1,2.7,0.2,4,0.2
			c1.3,0.1,2.7,0.1,4,0.1c1.3,0,2.6,0,3.8,0c5.5,0.4,11.3,0.6,17.2,0.4c5.9-0.1,11.8-0.3,17.7-0.4c5.9-0.1,11.6-0.3,17.2-0.3
			c5.5-0.1,10.6,0.3,15.3,1l2.2-2.9c1.8,0.2,3.7,0.5,5.8,1c2.1,0.5,4,1.2,5.6,2.1c0.1,0.6,0.6,1,1.2,1.2c0.7,0.2,1.5,0.3,2.4,0.2
			c0.9-0.1,1.8-0.2,2.6-0.4c0.8-0.2,1.5-0.5,2.1-0.8c1.8,1,3.8,1.9,6.1,2.7c2.2,0.8,4.6,1.5,7,2.4c2.4,0.8,4.7,1.7,6.8,2.7
			c2.2,1,4.1,2.1,5.7,3.5c0.6,0.8,1.4,1.4,2.4,2c1,0.6,1.9,1.2,2.8,1.9c0.9,0.7,1.7,1.3,2.5,2c0.7,0.7,1.2,1.6,1.3,2.8
			c3.1,3.3,5.8,7.1,7.9,11.6c2.1,4.4,3.7,9.1,4.7,14.1c1,5,1.5,10.2,1.5,15.5c-0.1,5.3-0.6,10.5-1.5,15.6c-1.2,4.3-2.9,8.3-5,11.9
			c-2.2,3.6-4.6,6.9-7.4,10c-2.8,3.1-5.7,5.9-8.9,8.6s-6.4,5.4-9.9,8.1c-1.3-0.1-2.5,0.1-3.4,0.7c-0.9,0.6-1.8,1.3-2.7,2
			c-0.9,0.8-1.9,1.5-2.9,2.2c-1,0.8-2.4,1.1-4,1.1c-2.2,1.2-4.5,2.1-6.7,2.8s-4.6,1.2-7.1,1.5c-2.5,0.3-4.9,0.5-7.4,0.6
			c-2.5,0.1-4.9,0.1-7.4,0c-2.5-0.1-5-0.1-7.5-0.2c-2.5-0.1-5.1-0.1-7.6,0c-2.5,0.1-5,0.3-7.5,0.7c-2.5,0.4-4.9,0.9-7.3,1.7
			c0,3,0.1,6.1,0.3,9.3c0.2,3.2,0.5,6.6,0.8,10.2c0.1,1,0.7,1.9,1.6,2.5c0.9,0.6,1.9,1.1,3.1,1.6c1.2,0.4,2.5,0.9,3.8,1.2
			c1.3,0.4,2.5,0.9,3.6,1.5c1.3,0.9,2.8,1.6,4.3,2c1.5,0.4,3.1,0.8,4.7,1c1.6,0.2,3.3,0.3,5,0.3c1.7,0,3.4,0,5.2,0
			c1.7,0,3.4,0,5.2,0.1c1.7,0.1,3.4,0.3,5,0.7c1.6,0.4,3.2,1,4.7,1.8c1.5,0.8,2.8,1.8,4,3c0.7,1.5,1.3,3.1,1.7,4.9
			c0.4,1.8,0.6,3.6,0.6,5.4s-0.2,3.6-0.7,5.5c-0.4,1.9-1,3.7-1.8,5.5c-1.9,1.8-4.1,3-6.4,3.7c-2.3,0.7-4.8,1.1-7.4,1.2
			c-2.6,0.2-5.3,0.2-8.1,0c-2.8-0.1-5.5-0.1-8.2,0.2c-11.2,0.2-22.5,0.3-33.8,0.4C3504.7,462.9,3493.6,463,3482.7,463z
			 M3544.4,364.1c4.3,0.2,8.8,0.1,13.5-0.2c4.6-0.3,9.2-1,13.6-2.1c4.4-1.1,8.6-2.8,12.5-4.9c3.9-2.2,7.1-5,9.6-8.4
			c1.3-2.1,2.4-4.3,3.3-6.7c0.8-2.4,1.3-4.8,1.6-7.3c0.2-2.5,0.1-4.9-0.3-7.2c-0.4-2.3-1.3-4.4-2.5-6.4c-1.3-2.1-2.9-3.9-4.6-5.5
			c-1.7-1.6-3.6-2.9-5.7-4c-2.1-1.1-4.3-2.1-6.6-2.8c-2.3-0.7-4.7-1.3-7.1-1.8c-2.4-0.4-4.9-0.8-7.5-1c-2.6-0.2-5.2-0.4-7.7-0.4
			c-2.5-0.1-5-0.1-7.5-0.1c-2.5,0-4.8,0-7.1,0c-2.8,0-5.3,0-7.5,0c-2.2,0-4.5,0-6.8,0l-1.1,58.3L3544.4,364.1z"/>
		<path d="M3689.2,462.8c-1.8-0.9-3.6-1.8-5.3-2.8c-1.7-1-3.7-2-5.9-3c-0.8-1.2-1.4-2.5-1.9-3.9c-0.5-1.4-0.9-2.9-1-4.5
			c-0.2-1.6-0.1-3.2,0.1-4.8c0.2-1.6,0.6-3.1,1.2-4.5c0.9-2.1,2.1-3.6,3.7-4.6c1.6-1,3.4-1.7,5.4-2.2c2-0.5,4.1-1,6.3-1.3
			c2.2-0.4,4.3-1,6.4-1.9c1-2.1,1.8-4.3,2.4-6.7c0.5-2.4,0.9-4.9,1.1-7.5c0.2-2.6,0.3-5.3,0.3-8c0-2.7,0-5.4-0.1-8.2
			c-0.1-2.8-0.2-5.5-0.4-8.3c-0.2-2.8-0.4-5.6-0.4-8.4c-0.1-2.8-0.1-5.6-0.1-8.4c0-2.8,0.1-5.4,0.4-8c-0.2-5.5-0.1-11.1,0.2-16.7
			c0.3-5.6,0.4-11.2,0.3-16.7c-0.1-5.5-0.4-10.9-1-16.2c-0.6-5.2-1.9-10.2-3.8-15c-1.8-0.1-3.6-0.3-5.4-0.6s-3.5-0.6-5.2-1
			c-1.6-0.4-3.3-1.1-4.8-1.9c-1.6-0.8-3-1.8-4.4-3c-0.9-1-1.6-2.2-2-3.6c-0.4-1.3-0.7-2.8-0.7-4.4c0-1.6,0.2-3.1,0.6-4.7
			c0.4-1.6,0.9-3,1.7-4.4c0.6-1,1.4-1.9,2.4-2.7c1-0.7,2-1.4,3-1.9c1-0.5,2.2-0.9,3.5-1.1c1.3-0.2,2.6-0.4,3.9-0.4
			c1.3-0.1,2.7-0.1,4-0.2c1.3-0.1,2.7-0.1,4.2-0.1c1.4,0,2.8,0,4.2-0.1c1.3-0.1,2.7-0.3,4-0.6c6-0.3,11.9-0.6,17.6-0.9
			c5.8-0.3,11.4-0.5,17.1-0.7c5.6-0.1,11.2-0.2,16.8-0.2c5.6,0,11.4,0.1,17.4,0.2c11.1,0.2,22.1,0.5,33.1,1c11,0.5,21.9,1,32.6,1.5
			c-0.3,0.3-0.3,0.6,0,0.9c0,2.7,0.1,5.4,0.2,8.1c0.1,2.7,0.3,5.4,0.4,8.1c0.1,2.7,0.3,5.4,0.4,8.2c0.1,2.8,0.2,5.5,0.1,8.3
			c-0.1,2.8-0.2,5.5-0.3,8.3c-0.2,2.8-0.5,5.5-1,8.2c-0.5,2.7-1.2,5.4-2,8.1c-0.8,2.7-1.8,5.2-3,7.6c-1.3,1.2-2.9,2.1-4.6,2.6
			c-1.7,0.5-3.6,0.8-5.5,0.7c-1.9-0.1-3.9-0.4-5.8-1.1c-1.9-0.7-3.7-1.5-5.2-2.6c-1-1.2-1.9-2.4-2.5-3.7c-0.6-1.3-1.1-2.6-1.5-3.9
			c-0.4-1.3-0.6-2.7-0.7-4.2c-0.1-1.4-0.1-2.9-0.1-4.4c0-1.5,0-3,0.1-4.5c0.1-1.5,0.1-3,0-4.4c-0.1-1.4-0.2-2.9-0.4-4.4
			c-0.2-1.5-0.6-2.9-1-4.3c-0.6,0-1.1,0-1.6,0c-0.4,0-0.9,0-1.5,0c-0.5,0-1,0-1.5-0.1c-0.4-0.1-1-0.1-1.6-0.1
			c-5.5-0.3-11.1-0.7-16.8-1.2c-5.7-0.5-11.3-0.9-16.9-1c-5.6-0.1-11.2,0.1-16.8,0.8c-5.6,0.7-11.1,2.1-16.5,4.2
			c-0.4,3.3-0.9,6.8-1.2,10.5c-0.4,3.7-0.6,7.6-0.6,11.4c0,3.9,0.2,7.8,0.6,11.7c0.4,3.9,1.1,7.6,2.1,11.2c3.4,0,6.9,0,10.4,0
			c3.5,0,7.1,0,10.9,0c1-0.6,1.9-1.3,2.6-2.1c0.7-0.8,1.3-1.7,1.9-2.6c0.6-0.9,1.1-1.9,1.6-2.9c0.4-1,0.9-2.1,1.3-3.1
			c0.4-1,0.9-2.1,1.5-3c0.5-1,1.1-1.9,1.8-2.7c0.7-0.8,1.4-1.5,2.2-2.1c0.8-0.6,1.8-1,3-1.3c1.8-0.3,3.5-0.4,5.2-0.4
			c1.6,0,3.2,0.2,4.6,0.6c1.4,0.4,2.7,1,3.9,1.9c1.2,0.9,2.2,2.1,3.1,3.6c0.9,4.8,1.7,9.8,2.5,15.1c0.7,5.3,1.2,10.7,1.2,16.2
			c0.1,5.5-0.3,10.9-1.2,16.4c-0.9,5.5-2.5,10.8-4.7,16c-0.6,0.9-1.4,1.6-2.5,2.1c-1,0.5-2.2,0.9-3.4,1.1c-1.2,0.2-2.4,0.3-3.7,0.3
			c-1.3,0-2.6-0.1-3.9-0.2c-2.7-0.4-4.8-1.4-6.3-2.9c-1.5-1.5-2.8-3.2-3.8-5.2c-1-1.9-1.9-4-2.7-6.1c-0.8-2.1-1.7-4-2.9-5.8
			c-1.8,0.2-3.7,0.1-5.6-0.1c-1.9-0.2-3.9-0.3-5.8-0.3c-1.9,0-3.9,0.2-5.7,0.4c-1.9,0.3-3.7,0.9-5.5,1.8c-1.3,3.1-2.2,6.5-2.7,10
			c-0.4,3.5-0.6,7.1-0.4,10.9c0.1,3.7,0.4,7.5,0.9,11.3c0.4,3.8,0.9,7.5,1.3,11.1c0.1,0.4,0.6,0.8,1.2,1.1c0.7,0.3,1.5,0.5,2.4,0.6
			c0.9,0.1,1.9,0.1,2.9,0.1c1,0,1.9,0.1,2.7,0.2c6,0.6,11.8,1,17.5,1.2c5.7,0.2,11.3,0.3,16.9,0.2c5.6-0.1,11.3-0.3,16.9-0.7
			c5.7-0.4,11.4-0.9,17.3-1.7c1.5-1.6,2.5-3.4,2.9-5.3c0.4-1.9,0.7-3.8,0.8-5.8c0.1-2,0.1-4,0.1-6.1s0.1-4,0.4-5.9
			c0.6-1.9,1.2-3.7,1.9-5.2c0.7-1.5,1.5-2.8,2.4-4c0.9-1.2,2-2.2,3.3-3c1.3-0.8,2.7-1.5,4.4-2.1c2.8-0.1,5.5,0.2,7.9,1.1
			c2.4,0.9,4.4,2.2,6.1,4c2.2,4.9,3.7,10.1,4.4,15.4c0.7,5.3,1,10.7,1,16.2c0,5.5-0.2,11-0.7,16.5c-0.4,5.5-0.7,10.8-0.7,15.9
			L3689.2,462.8z"/>
	</g>
</g>
<g>
	<path d="M7709.1,455.6c-2.1-0.2-4.3-0.3-6.4-0.5c-10.6-1-20.7-3.8-30.3-8.1c-9.1-4.1-17.3-9.4-24.7-16.1
		c-8.5-7.7-15.6-16.5-21.1-26.6c-4.7-8.7-8.1-17.8-9.9-27.5c-0.9-4.8-1.4-9.7-1.7-14.6c-0.8-13.7,1.5-26.9,6.4-39.6
		c4.1-10.7,10-20.4,17.6-29c5.6-6.4,11.9-12.1,19-16.8c9.7-6.5,20.2-11.1,31.5-13.9c9.4-2.3,19-3,28.7-2.6
		c8.2,0.4,16.3,1.9,24.1,4.4c12.7,4.1,24,10.4,34.1,19.1c9.1,7.8,16.5,17.1,22.3,27.6c5.2,9.7,8.8,20,10.5,30.9
		c0.5,3.1,0.7,6.2,1.1,9.3c0,4.2,0,8.5,0,12.7c-0.2,1.5-0.3,3.1-0.5,4.6c-1.4,12.4-5.1,24.2-11,35.2c-5.8,10.8-13.3,20.1-22.6,28
		c-10.1,8.7-21.6,15.1-34.4,19.1c-6.3,2-12.8,3.3-19.4,3.9c-2.1,0.2-4.1,0.3-6.2,0.5C7713.8,455.6,7711.5,455.6,7709.1,455.6z
		 M7805.4,357.9c-0.1-51.2-41.1-92.1-91.2-92.8c-52.4-0.8-93.7,41.1-94.3,91.5c-0.6,52.3,41.2,93.5,91.8,94
		C7763.9,451.1,7805.3,408.9,7805.4,357.9z"/>
	<path class="st0" d="M7805.4,357.9c-0.1,51-41.5,93.2-93.8,92.7c-50.5-0.5-92.3-41.7-91.8-94c0.6-50.5,41.9-92.3,94.3-91.5
		C7764.3,265.9,7805.3,306.8,7805.4,357.9z M7666.6,379.1c0,0.1,0,0.2,0,0.3c1.3,0.1,2.5,0.2,3.8,0.3c5.6,0.5,11.2,0.2,16.7-1.1
		c5.6-1.3,10.9-3.6,15.6-7c3.8-2.7,7-6,9.4-10c2.9-4.8,4.6-10.1,6-15.5c1.5-5.6,2.7-11.3,4-16.9c0.2-1,0.5-2,0.7-3
		c0.2,0.2,0.2,0.4,0.2,0.5c-0.1,8.1,0.1,16.1,1,24.2c0.5,4,1.2,8,2.6,11.9c2.3,6.4,8.1,10.2,14.5,10.3c3,0,6.1-0.1,9-0.7
		c5.2-1.1,10.3-2.5,15.4-3.9c4-1.1,7.9-2.7,11.9-3.9c2-0.6,4.1-0.8,6.2-1c2.2-0.2,4.5-0.2,6.7,0c1.2,0.1,1.6-0.2,2.2-1
		c1.3-2.1,2.7-4.1,4-6.2c0.8-1.2,1.6-2.5,2.6-3.9c-2.2,0-4,0.1-5.9,0c-4.3-0.2-8.5-0.7-12.4-2.5c-4.1-2-8.1-4.3-12.1-6.4
		c-3.6-1.9-7.3-3.3-11.4-3.7c-4.4-0.4-8.1,0.9-11.1,4.2c-3.1,3.4-5.3,7.3-7,11.5c-0.4,1-0.8,1.9-1,2.6c1.7-1.4,3.4-2.9,5.3-4.3
		c3.6-2.8,7.8-3.2,12.2-2.4c2.5,0.5,5,1.3,7.4,2.2c2.3,0.8,4.5,2,6.9,3c-2.5,2-5.1,3.3-7.8,4.2c-3.8,1.2-7.7,1.9-11.7,1.9
		c-4,0-7.9-0.2-11.9-0.4c-1.6-0.1-2.9-0.9-4-2c-1.7-1.7-2.7-3.7-3.4-6c-1.5-4.4-2-9-2.4-13.5c-0.3-3.6-0.3-7.3-0.5-10.9
		c-0.1-3.2-0.2-6.5-0.4-9.7c-0.2-3-0.3-6-0.7-8.9c-0.4-3-0.6-6.1-3.8-7.8c-0.1,0.1-0.2,0.3-0.2,0.4c-1.1,4.5-2.3,9-3.4,13.5
		c-1.4,5.9-2.7,11.9-4,17.9c-1.9,8.2-6,15.4-11.5,21.7c-4.3,4.9-9.3,9-14.8,12.4c-6.3,3.9-13,6.8-20,9
		C7668.5,378.6,7667.5,378.8,7666.6,379.1z M7637.1,342.4c-0.8,1.1-1.6,2-2.4,3c-3.9,5.4-6.8,11.2-6.5,18.1c0.2,5.5,2.6,10,7.1,13.2
		c2.6,1.8,5.5,2.8,8.5,3.5c5.9,1.4,11.5,0.8,16.9-2c4.1-2.1,7.5-5.1,10.4-8.6c1.7-2.1,3.2-4.4,4.7-6.8c1.4-2.2,1.4-4.8,1.5-7.3
		c0.1-2.3-0.1-4.6-0.2-6.9c-0.1-2-0.3-4-0.4-6c-0.3-4.5-0.7-8.9-1.1-13.4c-0.2-3-0.4-6-0.7-9c-0.5-5.9-0.1-11.5,2.8-16.8
		c-4.1-3.3-5.4-8.1-7.2-12.7c-1.8,3-3.6,5.8-5.3,8.7c-0.2,0.3-0.2,0.9-0.2,1.3c1,5.7,2.2,11.4,3.2,17.1c0.9,5.1,1.6,10.3,2.3,15.4
		c0.4,3.3,0.7,6.6,1,9.9c0.1,1.5,0,2.9,0.2,4.4c0.5,4.1,0.2,8.2-0.5,12.2c-0.3,1.7-0.7,3.3-2.1,4.5c-2.2,1.9-4.7,3.2-7.4,4.1
		c-4.5,1.4-9.1,2.1-14,1.6c-3.4-0.4-6.7-1.2-9.7-2.8c-1.8-0.9-3.3-2.2-4.1-4.2c-1.6-3.6-1.1-7.2-0.1-10.8
		C7634.8,348.9,7636,345.8,7637.1,342.4z M7671.7,391.4c-1.3,0.2-2.8,0.3-4.3,0.7c-0.5,0.1-1.1,0.9-1.3,1.5
		c-0.3,0.7,0.2,1.3,0.8,1.7c0.4,0.2,0.8,0.8,0.9,1.2c0.2,0.9,0.2,1.9,0.2,2.8c0.1,0.7-0.3,1.1-1,1.1c-1.2,0-2.4,0.1-3.7,0
		c-0.3,0-0.7-0.2-0.9-0.5c-0.7-1-0.1-3.8,0.9-4.7c0.5-0.5,1.1-1.3,1-1.8c-0.1-0.6-0.9-1.3-1.5-1.5c-2.2-0.8-4.6-0.5-6.8-0.2
		c-0.8,0.1-1.6,0.3-2.3,0.7c-0.6,0.3-1.1,1-1.3,1.6c-0.3,0.8,0.5,1.1,1.1,1.5c0.4,0.3,1,0.9,1,1.4c0,4,0,8-0.2,12
		c0,0.5-0.5,1.1-0.9,1.4c-0.7,0.5-1.6,0.9-1.2,1.8c0.3,0.7,1.1,1.5,1.7,1.6c2,0.3,4,0.4,6,0.4c1.1,0,2.2-0.3,3.2-0.7
		c1.2-0.5,1.6-2.1,0.5-2.7c-1.5-0.9-1.6-2.3-1.5-3.7c0.1-2.5,0.2-2.5,2.7-2.5c3.6,0,3.7,0.1,3.1,3.7c-0.1,0.8-0.5,1.6-1,2.2
		c-0.5,0.6-1.4,1.1-1,1.9c0.3,0.6,1,1.4,1.7,1.5c2,0.3,4.1,0.4,6.2,0.3c1.1,0,2.2-0.3,3.1-0.8c1.2-0.6,1.1-2,0-2.6
		c-0.9-0.5-1.3-1.3-1.3-2.2c0-3.9,0.1-7.8,0.3-11.7c0-0.5,0.4-1.2,0.9-1.5c0.7-0.5,1.2-1,1.1-2c-0.2-1-0.9-1.4-1.8-1.5
		C7674.8,391.7,7673.4,391.6,7671.7,391.4z M7704.9,352.3c2.8-18.2-7.9-34.9-25.9-41.3c-0.1,0.5-0.2,0.9-0.2,1.4
		c0.1,3.2,0.1,6.5,0.3,9.7c0.1,2.2,1,4.1,2.9,5.3c1.8,1.1,3.7,2,5.7,2.8c2.6,1.1,5.2,1.9,7.4,3.7c3.4,2.8,5.3,6.6,6.9,10.5
		C7703.1,347.1,7703.9,349.7,7704.9,352.3z M7699,414.4C7699,414.4,7699.1,414.4,7699,414.4c0.7-0.1,1.3,0,2-0.1
		c1.2-0.2,2.5-0.4,3.6-0.8c0.4-0.2,0.9-1,0.9-1.5c0-0.4-0.8-0.8-1.2-1.1c-0.5-0.4-1.1-0.8-1.4-1.4c-0.9-1.6-1.6-3.4-2.4-5.1
		c-1.8-3.5-3.6-6.9-5.5-10.3c-0.7-1.3-1.8-2.2-3.2-2.6c-2.6-0.8-4.6,0.6-5,3.3c-0.2,1.7-0.6,3.4-1.2,4.9c-1.1,2.9-2.5,5.7-3.8,8.5
		c-0.6,1.3-1.4,2.6-2.9,3.1c-0.4,0.1-0.8,0.9-0.8,1.3c0,0.5,0.5,1.1,0.9,1.4c0.6,0.3,1.3,0.4,2,0.4c1.9-0.1,3.8-0.2,5.7-0.5
		c0.4-0.1,0.9-0.9,1-1.4c0.1-0.3-0.5-0.8-0.8-1.1c-0.3-0.4-0.7-0.7-1.1-1c0.5-0.4,0.9-1.2,1.4-1.2c1.9-0.1,3.8,0,5.7,0.2
		c0.4,0,1,0.5,1.1,0.9c0.1,0.3-0.5,0.7-0.8,1.1c-0.3,0.4-0.9,0.9-0.9,1.3c0,0.5,0.5,1,0.9,1.3c0.3,0.2,0.8,0.3,1.2,0.3
		C7696,414.2,7697.5,414.3,7699,414.4z M7747.6,414.4C7747.6,414.4,7747.6,414.4,7747.6,414.4c0.7-0.1,1.3,0,2-0.1
		c1.2-0.2,2.4-0.3,3.5-0.8c0.5-0.2,0.9-1,0.9-1.6c0-0.3-0.7-0.7-1.1-1.1c-0.5-0.5-1.2-0.9-1.5-1.5c-1.1-2.2-2.1-4.6-3.2-6.8
		c-1.5-2.8-3-5.7-4.6-8.4c-0.7-1.3-1.8-2.2-3.2-2.6c-2.5-0.8-5.3,0.9-5,3.5c0.1,1.2-0.2,2.6-0.7,3.8c-1.3,3.2-2.8,6.4-4.2,9.6
		c-0.6,1.3-1.4,2.5-2.9,3c-0.4,0.1-0.9,0.9-0.8,1.3c0.1,0.5,0.6,1.3,1,1.4c2.4,0.6,4.9,0.7,7.3-0.1c0.5-0.2,1-0.9,1.2-1.4
		c0.3-0.8-0.5-1.1-1.2-1.4c-0.9-0.4-1.1-0.9-0.4-1.6c0.3-0.3,0.8-0.5,1.2-0.5c1.9,0,3.7,0,5.6,0.2c0.4,0,1,0.5,1.1,0.9
		c0.1,0.3-0.4,0.9-0.8,1.1c-0.8,0.3-1,0.9-0.9,1.6c0.2,1,1.1,1.3,1.9,1.4C7744.4,414.3,7746,414.3,7747.6,414.4z M7760.6,391.4
		c-1.4,0.2-3.2,0.4-4.9,0.8c-0.6,0.2-1.3,1-1.5,1.7c-0.2,0.9,0.7,1.2,1.5,1.5c0.7,0.2,1.3,0.6,1.3,1.5c0.1,3.5,0.2,7,0.2,10.5
		c0,1.7,0,3.6-2.1,4.3c-0.3,0.1-0.6,0.9-0.5,1.2c0.1,0.4,0.6,0.9,1,1c0.8,0.2,1.7,0.2,2.5,0.2c4.5,0.1,8.9,0.3,13.4,0.4
		c0.4,0,1-0.2,1.3-0.5c1.4-1.8,2.3-3.7,2-6.1c-0.1-0.9-0.6-1.7-1.7-1.9c-1.1-0.2-1.3,0.7-1.5,1.5c-0.6,2.2-2.6,3.1-4.9,2.8
		c-1.2-0.1-1.8-0.8-1.8-1.9c0-3.9-0.1-7.9,0-11.8c0-0.5,0.6-1.2,1-1.5c0.7-0.4,1.4-0.7,1.3-1.7c-0.1-1-0.9-1.4-1.7-1.5
		C7764.1,391.7,7762.5,391.6,7760.6,391.4z M7712.2,391.4c-1.5,0.2-3.1,0.4-4.8,0.7c-0.9,0.2-1.7,0.6-1.7,1.7c0,1.1,0.9,1.3,1.6,1.5
		c0.8,0.3,1.2,0.7,1.2,1.6c0,3.9,0.1,7.7,0.2,11.6c0,1.4-0.5,2.3-1.7,2.9c-0.4,0.2-0.9,1-0.8,1.4c0.1,0.4,0.7,0.9,1.2,1
		c0.8,0.2,1.7,0.2,2.5,0.2c4.4,0.1,8.8,0.3,13.1,0.4c0.4,0,1-0.1,1.2-0.4c1.5-1.8,2.5-3.8,2.1-6.2c-0.2-0.9-0.6-1.7-1.7-1.8
		c-1.2-0.2-1.3,0.8-1.5,1.5c-0.6,2.4-3.1,3.1-5,2.8c-1.1-0.2-1.6-0.8-1.6-1.8c-0.1-3.6-0.2-7.2-0.2-10.8c0-0.9-0.1-2.1,1.2-2.6
		c0.8-0.3,1.4-0.7,1.4-1.6c-0.1-1-0.9-1.4-1.7-1.5C7715.6,391.7,7714,391.6,7712.2,391.4z"/>
	<path d="M7666.6,379.1c0.9-0.3,1.9-0.5,2.8-0.8c7.1-2.2,13.8-5.1,20-9c5.5-3.4,10.6-7.5,14.8-12.4c5.5-6.4,9.6-13.5,11.5-21.7
		c1.4-6,2.6-11.9,4-17.9c1.1-4.5,2.2-9,3.4-13.5c0-0.1,0.2-0.3,0.2-0.4c3.2,1.7,3.4,4.9,3.8,7.8c0.4,3,0.5,6,0.7,8.9
		c0.2,3.2,0.3,6.5,0.4,9.7c0.1,3.6,0.1,7.3,0.5,10.9c0.4,4.6,0.9,9.1,2.4,13.5c0.7,2.2,1.7,4.3,3.4,6c1.1,1.1,2.5,1.9,4,2
		c4,0.2,7.9,0.5,11.9,0.4c4,0,7.9-0.7,11.7-1.9c2.8-0.9,5.3-2.2,7.8-4.2c-2.4-1.1-4.6-2.2-6.9-3c-2.4-0.9-4.9-1.7-7.4-2.2
		c-4.3-0.8-8.5-0.4-12.2,2.4c-1.8,1.4-3.6,2.9-5.3,4.3c0.3-0.7,0.6-1.6,1-2.6c1.7-4.2,3.8-8.2,7-11.5c3-3.3,6.7-4.6,11.1-4.2
		c4.1,0.4,7.8,1.9,11.4,3.7c4,2.1,8,4.4,12.1,6.4c3.9,1.8,8.1,2.4,12.4,2.5c1.8,0.1,3.7,0,5.9,0c-1,1.5-1.8,2.7-2.6,3.9
		c-1.3,2.1-2.7,4.1-4,6.2c-0.5,0.9-1,1.2-2.2,1c-2.2-0.3-4.5-0.2-6.7,0c-2.1,0.2-4.2,0.4-6.2,1c-4,1.2-7.9,2.7-11.9,3.9
		c-5.1,1.5-10.2,2.9-15.4,3.9c-2.9,0.6-6,0.7-9,0.7c-6.4,0-12.2-3.8-14.5-10.3c-1.4-3.9-2.1-7.8-2.6-11.9c-1-8-1.1-16.1-1-24.2
		c0-0.2,0-0.3-0.2-0.5c-0.2,1-0.5,2-0.7,3c-1.3,5.6-2.5,11.3-4,16.9c-1.5,5.3-3.2,10.7-6,15.5c-2.4,4.1-5.7,7.3-9.4,10
		c-4.7,3.4-9.9,5.7-15.6,7c-5.5,1.3-11,1.6-16.7,1.1c-1.3-0.1-2.5-0.2-3.8-0.3C7666.6,379.3,7666.6,379.2,7666.6,379.1z"/>
	<path d="M7637.1,342.4c-1.1,3.4-2.4,6.5-3.2,9.8c-0.9,3.6-1.4,7.2,0.1,10.8c0.8,1.9,2.3,3.2,4.1,4.2c3,1.5,6.3,2.4,9.7,2.8
		c4.8,0.5,9.4-0.1,14-1.6c2.7-0.9,5.2-2.2,7.4-4.1c1.4-1.2,1.8-2.9,2.1-4.5c0.7-4,1-8.1,0.5-12.2c-0.2-1.4-0.1-2.9-0.2-4.4
		c-0.3-3.3-0.6-6.6-1-9.9c-0.7-5.1-1.4-10.3-2.3-15.4c-1-5.7-2.1-11.4-3.2-17.1c-0.1-0.4,0-0.9,0.2-1.3c1.7-2.9,3.5-5.7,5.3-8.7
		c1.8,4.6,3.2,9.4,7.2,12.7c-2.9,5.3-3.3,11-2.8,16.8c0.3,3,0.4,6,0.7,9c0.4,4.5,0.7,8.9,1.1,13.4c0.2,2,0.3,4,0.4,6
		c0.1,2.3,0.3,4.6,0.2,6.9c-0.1,2.5-0.2,5.1-1.5,7.3c-1.4,2.3-2.9,4.6-4.7,6.8c-2.9,3.6-6.3,6.5-10.4,8.6c-5.4,2.8-11,3.4-16.9,2
		c-3.1-0.7-6-1.7-8.5-3.5c-4.6-3.2-6.9-7.7-7.1-13.2c-0.3-6.9,2.6-12.7,6.5-18.1C7635.5,344.4,7636.3,343.5,7637.1,342.4z"/>
	<path d="M7671.7,391.4c1.7,0.2,3,0.3,4.4,0.5c0.9,0.1,1.6,0.5,1.8,1.5c0.1,1-0.4,1.5-1.1,2c-0.4,0.3-0.9,0.9-0.9,1.5
		c-0.1,3.9-0.2,7.8-0.3,11.7c0,0.9,0.3,1.7,1.3,2.2c1.1,0.6,1.2,2,0,2.6c-0.9,0.5-2.1,0.8-3.1,0.8c-2.1,0-4.1-0.1-6.2-0.3
		c-0.6-0.1-1.4-0.9-1.7-1.5c-0.4-0.8,0.5-1.3,1-1.9c0.5-0.6,0.9-1.4,1-2.2c0.6-3.7,0.5-3.7-3.1-3.7c-2.5,0-2.6,0.1-2.7,2.5
		c0,1.4,0.1,2.8,1.5,3.7c1,0.7,0.7,2.2-0.5,2.7c-1,0.4-2.1,0.7-3.2,0.7c-2,0-4.1-0.1-6-0.4c-0.7-0.1-1.5-0.9-1.7-1.6
		c-0.3-0.9,0.6-1.3,1.2-1.8c0.4-0.3,0.9-0.9,0.9-1.4c0.1-4,0.2-8,0.2-12c0-0.5-0.5-1.1-1-1.4c-0.6-0.4-1.4-0.7-1.1-1.5
		c0.2-0.6,0.7-1.3,1.3-1.6c0.7-0.4,1.5-0.5,2.3-0.7c2.3-0.4,4.6-0.6,6.8,0.2c0.6,0.2,1.4,0.9,1.5,1.5c0.1,0.6-0.5,1.4-1,1.8
		c-1,0.9-1.7,3.7-0.9,4.7c0.2,0.3,0.6,0.5,0.9,0.5c1.2,0,2.4,0,3.7,0c0.7,0,1-0.3,1-1.1c-0.1-0.9-0.1-1.9-0.2-2.8
		c-0.1-0.5-0.5-1-0.9-1.2c-0.7-0.4-1.1-1-0.8-1.7c0.2-0.6,0.8-1.4,1.3-1.5C7668.9,391.7,7670.5,391.6,7671.7,391.4z"/>
	<path d="M7704.9,352.3c-0.9-2.6-1.8-5.2-2.9-7.8c-1.6-3.9-3.5-7.7-6.9-10.5c-2.2-1.8-4.9-2.6-7.4-3.7c-1.9-0.8-3.9-1.8-5.7-2.8
		c-1.9-1.2-2.8-3.1-2.9-5.3c-0.2-3.2-0.2-6.5-0.3-9.7c0-0.5,0.1-0.9,0.2-1.4C7697,317.4,7707.7,334.1,7704.9,352.3z"/>
	<path d="M7699,414.4c-1.5-0.1-3.1-0.2-4.6-0.4c-0.4,0-0.9-0.1-1.2-0.3c-0.4-0.4-0.9-0.9-0.9-1.3c0-0.4,0.6-0.9,0.9-1.3
		c0.3-0.4,0.9-0.8,0.8-1.1c-0.1-0.4-0.7-0.9-1.1-0.9c-1.9-0.2-3.8-0.2-5.7-0.2c-0.5,0-0.9,0.8-1.4,1.2c0.4,0.3,0.8,0.7,1.1,1
		c0.3,0.4,0.9,0.8,0.8,1.1c-0.1,0.5-0.6,1.4-1,1.4c-1.9,0.3-3.8,0.4-5.7,0.5c-0.7,0-1.4-0.1-2-0.4c-0.4-0.2-0.9-0.9-0.9-1.4
		c0-0.4,0.4-1.1,0.8-1.3c1.6-0.5,2.3-1.7,2.9-3.1c1.3-2.8,2.6-5.6,3.8-8.5c0.6-1.6,1-3.3,1.2-4.9c0.3-2.7,2.3-4.1,5-3.3
		c1.4,0.4,2.5,1.4,3.2,2.6c1.9,3.4,3.7,6.9,5.5,10.3c0.9,1.7,1.5,3.4,2.4,5.1c0.3,0.6,0.9,0.9,1.4,1.4c0.4,0.4,1.2,0.8,1.2,1.1
		c0,0.5-0.4,1.4-0.9,1.5c-1.2,0.4-2.4,0.6-3.6,0.8C7700.4,414.4,7699.7,414.4,7699,414.4C7699.1,414.4,7699,414.4,7699,414.4z
		 M7692.3,404.8c0.1-0.1,0.1-0.3,0.2-0.4c-0.7-1.2-1.3-2.5-2.1-3.6c-0.4-0.6-1-0.5-1.2,0.1c-0.5,1-0.9,2.1-1.2,3.2
		c-0.1,0.2,0.2,0.7,0.3,0.7C7689.6,404.8,7691,404.8,7692.3,404.8z"/>
	<path d="M7747.6,414.4c-1.6-0.1-3.2-0.2-4.8-0.4c-0.8-0.1-1.7-0.3-1.9-1.4c-0.1-0.7,0.1-1.3,0.9-1.6c0.4-0.2,0.9-0.8,0.8-1.1
		c-0.1-0.4-0.7-0.9-1.1-0.9c-1.9-0.2-3.7-0.2-5.6-0.2c-0.4,0-0.9,0.2-1.2,0.5c-0.7,0.7-0.5,1.3,0.4,1.6c0.7,0.3,1.4,0.5,1.2,1.4
		c-0.2,0.6-0.7,1.3-1.2,1.4c-2.4,0.8-4.9,0.7-7.3,0.1c-0.5-0.1-0.9-0.9-1-1.4c-0.1-0.4,0.4-1.1,0.8-1.3c1.5-0.5,2.3-1.7,2.9-3
		c1.4-3.2,2.9-6.3,4.2-9.6c0.5-1.2,0.9-2.6,0.7-3.8c-0.3-2.5,2.5-4.2,5-3.5c1.4,0.4,2.5,1.4,3.2,2.6c1.6,2.8,3.2,5.6,4.6,8.4
		c1.1,2.2,2.1,4.6,3.2,6.8c0.3,0.6,1,1,1.5,1.5c0.4,0.4,1.2,0.8,1.1,1.1c0,0.6-0.5,1.4-0.9,1.6c-1.1,0.4-2.3,0.6-3.5,0.8
		C7748.9,414.4,7748.3,414.4,7747.6,414.4C7747.6,414.4,7747.6,414.4,7747.6,414.4z M7741.2,404.6c-0.9-1.5-1.5-2.7-2.3-3.9
		c-0.3-0.5-0.9-0.6-1.2,0c-0.6,1.2-1,2.5-1.6,3.9C7738,404.6,7739.4,404.6,7741.2,404.6z"/>
	<path d="M7760.6,391.4c1.9,0.2,3.5,0.3,5.1,0.6c0.8,0.1,1.6,0.5,1.7,1.5c0.1,1-0.6,1.2-1.3,1.7c-0.5,0.3-1,1-1,1.5
		c-0.1,3.9-0.1,7.9,0,11.8c0,1.1,0.6,1.8,1.8,1.9c2.3,0.3,4.3-0.6,4.9-2.8c0.2-0.8,0.4-1.7,1.5-1.5c1,0.2,1.5,0.9,1.7,1.9
		c0.4,2.3-0.5,4.3-2,6.1c-0.3,0.3-0.9,0.5-1.3,0.5c-4.5-0.1-8.9-0.2-13.4-0.4c-0.8,0-1.7,0-2.5-0.2c-0.4-0.1-0.9-0.6-1-1
		c-0.1-0.3,0.2-1.1,0.5-1.2c2.2-0.8,2.1-2.6,2.1-4.3c0-3.5-0.2-7-0.2-10.5c0-0.9-0.6-1.3-1.3-1.5c-0.7-0.2-1.7-0.5-1.5-1.5
		c0.2-0.7,0.9-1.5,1.5-1.7C7757.4,391.8,7759.2,391.6,7760.6,391.4z"/>
	<path d="M7712.2,391.4c1.8,0.2,3.4,0.3,5,0.6c0.8,0.1,1.6,0.5,1.7,1.5c0.1,0.9-0.6,1.3-1.4,1.6c-1.3,0.4-1.2,1.6-1.2,2.6
		c0,3.6,0.1,7.2,0.2,10.8c0,1,0.6,1.6,1.6,1.8c1.9,0.3,4.4-0.4,5-2.8c0.2-0.7,0.3-1.7,1.5-1.5c1.1,0.1,1.6,0.9,1.7,1.8
		c0.4,2.4-0.6,4.4-2.1,6.2c-0.2,0.3-0.8,0.4-1.2,0.4c-4.4-0.1-8.8-0.2-13.1-0.4c-0.8,0-1.7,0-2.5-0.2c-0.5-0.1-1.2-0.6-1.2-1
		c-0.1-0.4,0.4-1.2,0.8-1.4c1.3-0.6,1.8-1.5,1.7-2.9c-0.1-3.9-0.1-7.7-0.2-11.6c0-0.9-0.4-1.3-1.2-1.6c-0.7-0.3-1.6-0.4-1.6-1.5
		c0-1.1,0.9-1.6,1.7-1.7C7709,391.8,7710.7,391.6,7712.2,391.4z"/>
	<path class="st0" d="M7692.3,404.8c-1.3,0-2.7,0-4,0c-0.1,0-0.4-0.5-0.3-0.7c0.4-1.1,0.8-2.1,1.2-3.2c0.3-0.6,0.8-0.7,1.2-0.1
		c0.7,1.2,1.4,2.4,2.1,3.6C7692.4,404.5,7692.4,404.6,7692.3,404.8z"/>
	<path class="st0" d="M7741.2,404.6c-1.8,0-3.3,0-5,0c0.6-1.4,1-2.7,1.6-3.9c0.3-0.6,0.8-0.5,1.2,0
		C7739.7,401.9,7740.4,403.2,7741.2,404.6z"/>
</g>
<g>
	<path d="M2707.4,71.5c-63.1,3.8-190.3,11.4-190.3,11.4l-0.1,10.1c66,0,126.8,0,190.7,0c0.1,3.2,0.2,6.4,0.2,9.6
		c-63.6,2.6-127.2,5.1-190.8,7.7c0,2.7,0,5.4-0.1,8.1c63.5,1.9,127.3,2.7,190.8,4.6c0.1,2.3,0.3,6.3,0.4,8.6
		c-32,1.2-64.5,1.9-96.5,3.1c-31.7,1.2-64.4,2.7-94.7,3.1l0,10.1c63.5,0,126.9,0,190.4,0c0.3,3,0.5,6,0.8,9.1c-15.8,1.9-49.8,5-65,6
		c-67.3,4.6-115,7.8-182.3,12.6c-31.8,2.3-56.7-11.1-79.9-27.2c-24.1-16.7-50-20.8-80-19.5c-106.5,4.4-213,6.9-319.6,10
		c-70.5,2.1-141,4.6-211.6,5.5c-14.2,0.2-29.8-3.7-42.3-9.8c-19.1-9.3-18.8-31.7,0.5-40.7c12.6-5.8,28.4-9,42.6-8.6
		c174,5.2,348,10.8,521.9,17.4c35.3,1.3,66.4-3.7,93.3-26.2c28.1-23.5,63-23.6,99.2-22.7c69.6,1.8,101,3.2,170.6,7.2
		c4.7,0.3,47.5,2.1,52.1,2.9C2707.8,65,2707.6,70.3,2707.4,71.5z"/>
</g>
</svg>
